<svg width="580" height="121" viewBox="0 0 580 121" fill="none" xmlns="http://www.w3.org/2000/svg">
<path d="M45.2812 42.668C45.1172 46.2305 44.1562 49.3828 42.3984 52.125C40.6406 54.8438 38.168 56.9531 34.9805 58.4531C31.8164 59.9531 28.1953 60.7031 24.1172 60.7031C17.3906 60.7031 12.0938 58.5117 8.22656 54.1289C4.35938 49.7461 2.42578 43.5586 2.42578 35.5664V33.0352C2.42578 28.0195 3.29297 23.6367 5.02734 19.8867C6.78516 16.1133 9.30469 13.207 12.5859 11.168C15.8672 9.10547 19.6641 8.07422 23.9766 8.07422C30.1875 8.07422 35.1797 9.71484 38.9531 12.9961C42.7266 16.2539 44.8711 20.7539 45.3867 26.4961H33.082C32.9883 23.3789 32.2031 21.1406 30.7266 19.7812C29.25 18.4219 27 17.7422 23.9766 17.7422C20.9062 17.7422 18.6562 18.8906 17.2266 21.1875C15.7969 23.4844 15.0469 27.1523 14.9766 32.1914V35.8125C14.9766 41.2734 15.6562 45.1758 17.0156 47.5195C18.3984 49.8633 20.7656 51.0352 24.1172 51.0352C26.9531 51.0352 29.1211 50.3672 30.6211 49.0312C32.1211 47.6953 32.918 45.5742 33.0117 42.668H45.2812ZM123.625 35.4609C123.625 40.4531 122.699 44.8711 120.848 48.7148C118.996 52.5586 116.359 55.5234 112.937 57.6094C109.539 59.6719 105.66 60.7031 101.301 60.7031C96.9413 60.7031 93.0741 59.707 89.6991 57.7148C86.3241 55.6992 83.6873 52.8281 81.7889 49.1016C79.9139 45.375 78.9295 41.0977 78.8358 36.2695V33.3867C78.8358 28.3711 79.7498 23.9531 81.578 20.1328C83.4295 16.2891 86.0663 13.3242 89.4881 11.2383C92.9334 9.15234 96.8475 8.10938 101.23 8.10938C105.566 8.10938 109.433 9.14062 112.832 11.2031C116.23 13.2656 118.867 16.207 120.742 20.0273C122.64 23.8242 123.601 28.1836 123.625 33.1055V35.4609ZM111.074 33.3164C111.074 28.2305 110.219 24.375 108.508 21.75C106.82 19.1016 104.394 17.7773 101.23 17.7773C95.0428 17.7773 91.7733 22.418 91.4217 31.6992L91.3866 35.4609C91.3866 40.4766 92.2186 44.332 93.8827 47.0273C95.5467 49.7227 98.0194 51.0703 101.301 51.0703C104.418 51.0703 106.82 49.7461 108.508 47.0977C110.195 44.4492 111.051 40.6406 111.074 35.6719V33.3164ZM201.898 60H189.629L171.488 28.1484V60H159.148V8.8125H171.488L189.593 40.6641V8.8125H201.898V60ZM277.992 18.3398H262.628V60H250.289V18.3398H235.207V8.8125H277.992V18.3398ZM337.245 50.4375H320.335L317.382 60H304.199L322.972 8.8125H334.574L353.488 60H340.234L337.245 50.4375ZM323.288 40.9102H334.292L328.773 23.1562L323.288 40.9102ZM427.05 42.668C426.886 46.2305 425.925 49.3828 424.167 52.125C422.409 54.8438 419.937 56.9531 416.749 58.4531C413.585 59.9531 409.964 60.7031 405.886 60.7031C399.159 60.7031 393.862 58.5117 389.995 54.1289C386.128 49.7461 384.195 43.5586 384.195 35.5664V33.0352C384.195 28.0195 385.062 23.6367 386.796 19.8867C388.554 16.1133 391.073 13.207 394.355 11.168C397.636 9.10547 401.433 8.07422 405.745 8.07422C411.956 8.07422 416.948 9.71484 420.722 12.9961C424.495 16.2539 426.64 20.7539 427.155 26.4961H414.851C414.757 23.3789 413.972 21.1406 412.495 19.7812C411.019 18.4219 408.769 17.7422 405.745 17.7422C402.675 17.7422 400.425 18.8906 398.995 21.1875C397.566 23.4844 396.816 27.1523 396.745 32.1914V35.8125C396.745 41.2734 397.425 45.1758 398.784 47.5195C400.167 49.8633 402.534 51.0352 405.886 51.0352C408.722 51.0352 410.89 50.3672 412.39 49.0312C413.89 47.6953 414.687 45.5742 414.78 42.668H427.05ZM501.175 18.3398H485.812V60H473.472V18.3398H458.39V8.8125H501.175V18.3398Z" fill="#3B668D"/>
<path d="M11.08 112.144C9.416 112.144 7.904 111.776 6.544 111.04C5.2 110.288 4.144 109.264 3.376 107.968C2.624 106.672 2.248 105.216 2.248 103.6C2.248 101.984 2.624 100.528 3.376 99.232C4.144 97.936 5.2 96.92 6.544 96.184C7.904 95.432 9.416 95.056 11.08 95.056C12.744 95.056 14.24 95.424 15.568 96.16C16.912 96.896 17.968 97.92 18.736 99.232C19.504 100.528 19.888 101.984 19.888 103.6C19.888 105.216 19.504 106.68 18.736 107.992C17.968 109.288 16.912 110.304 15.568 111.04C14.24 111.776 12.744 112.144 11.08 112.144ZM11.08 110.56C12.408 110.56 13.608 110.264 14.68 109.672C15.752 109.064 16.592 108.232 17.2 107.176C17.808 106.104 18.112 104.912 18.112 103.6C18.112 102.288 17.808 101.104 17.2 100.048C16.592 98.976 15.752 98.144 14.68 97.552C13.608 96.944 12.408 96.64 11.08 96.64C9.752 96.64 8.544 96.944 7.456 97.552C6.384 98.144 5.536 98.976 4.912 100.048C4.304 101.104 4 102.288 4 103.6C4 104.912 4.304 106.104 4.912 107.176C5.536 108.232 6.384 109.064 7.456 109.672C8.544 110.264 9.752 110.56 11.08 110.56ZM59.6288 95.2V112H58.1648L47.3648 98.368V112H45.5888V95.2H47.0528L57.8768 108.832V95.2H59.6288ZM86.8323 95.2H88.6083V110.464H98.0163V112H86.8323V95.2ZM122.685 95.2H124.461V112H122.685V95.2ZM165.687 95.2V112H164.223L153.423 98.368V112H151.647V95.2H153.111L163.935 108.832V95.2H165.687ZM204.771 110.464V112H192.891V95.2H204.411V96.736H194.667V102.712H203.355V104.224H194.667V110.464H204.771ZM263.299 112.144C262.051 112.144 260.851 111.944 259.699 111.544C258.563 111.144 257.683 110.616 257.059 109.96L257.755 108.592C258.363 109.2 259.171 109.696 260.179 110.08C261.187 110.448 262.227 110.632 263.299 110.632C264.803 110.632 265.931 110.36 266.683 109.816C267.435 109.256 267.811 108.536 267.811 107.656C267.811 106.984 267.603 106.448 267.187 106.048C266.787 105.648 266.291 105.344 265.699 105.136C265.107 104.912 264.283 104.672 263.227 104.416C261.963 104.096 260.955 103.792 260.203 103.504C259.451 103.2 258.803 102.744 258.259 102.136C257.731 101.528 257.467 100.704 257.467 99.664C257.467 98.816 257.691 98.048 258.139 97.36C258.587 96.656 259.275 96.096 260.203 95.68C261.131 95.264 262.283 95.056 263.659 95.056C264.619 95.056 265.555 95.192 266.467 95.464C267.395 95.72 268.195 96.08 268.867 96.544L268.267 97.96C267.563 97.496 266.811 97.152 266.011 96.928C265.211 96.688 264.427 96.568 263.659 96.568C262.187 96.568 261.075 96.856 260.323 97.432C259.587 97.992 259.219 98.72 259.219 99.616C259.219 100.288 259.419 100.832 259.819 101.248C260.235 101.648 260.747 101.96 261.355 102.184C261.979 102.392 262.811 102.624 263.851 102.88C265.083 103.184 266.075 103.488 266.827 103.792C267.595 104.08 268.243 104.528 268.771 105.136C269.299 105.728 269.563 106.536 269.563 107.56C269.563 108.408 269.331 109.184 268.867 109.888C268.419 110.576 267.723 111.128 266.779 111.544C265.835 111.944 264.675 112.144 263.299 112.144ZM298.182 96.736H292.278V95.2H305.862V96.736H299.958V112H298.182V96.736ZM337.529 112.144C335.865 112.144 334.353 111.776 332.993 111.04C331.649 110.288 330.593 109.264 329.825 107.968C329.073 106.672 328.697 105.216 328.697 103.6C328.697 101.984 329.073 100.528 329.825 99.232C330.593 97.936 331.649 96.92 332.993 96.184C334.353 95.432 335.865 95.056 337.529 95.056C339.193 95.056 340.689 95.424 342.017 96.16C343.361 96.896 344.417 97.92 345.185 99.232C345.953 100.528 346.337 101.984 346.337 103.6C346.337 105.216 345.953 106.68 345.185 107.992C344.417 109.288 343.361 110.304 342.017 111.04C340.689 111.776 339.193 112.144 337.529 112.144ZM337.529 110.56C338.857 110.56 340.057 110.264 341.129 109.672C342.201 109.064 343.041 108.232 343.649 107.176C344.257 106.104 344.561 104.912 344.561 103.6C344.561 102.288 344.257 101.104 343.649 100.048C343.041 98.976 342.201 98.144 341.129 97.552C340.057 96.944 338.857 96.64 337.529 96.64C336.201 96.64 334.993 96.944 333.905 97.552C332.833 98.144 331.985 98.976 331.361 100.048C330.753 101.104 330.449 102.288 330.449 103.6C330.449 104.912 330.753 106.104 331.361 107.176C331.985 108.232 332.833 109.064 333.905 109.672C334.993 110.264 336.201 110.56 337.529 110.56ZM383.51 112L379.67 106.6C379.238 106.648 378.79 106.672 378.326 106.672H373.814V112H372.038V95.2H378.326C380.47 95.2 382.15 95.712 383.366 96.736C384.582 97.76 385.19 99.168 385.19 100.96C385.19 102.272 384.854 103.384 384.182 104.296C383.526 105.192 382.582 105.84 381.35 106.24L385.454 112H383.51ZM378.278 105.16C379.942 105.16 381.214 104.792 382.094 104.056C382.974 103.32 383.414 102.288 383.414 100.96C383.414 99.6 382.974 98.56 382.094 97.84C381.214 97.104 379.942 96.736 378.278 96.736H373.814V105.16H378.278ZM421.637 107.512H412.277L410.261 112H408.413L416.093 95.2H417.845L425.525 112H423.653L421.637 107.512ZM420.989 106.072L416.957 97.048L412.925 106.072H420.989ZM461.622 103.6H463.326V110.008C462.542 110.696 461.614 111.224 460.542 111.592C459.47 111.96 458.342 112.144 457.158 112.144C455.478 112.144 453.966 111.776 452.622 111.04C451.278 110.304 450.222 109.288 449.454 107.992C448.686 106.68 448.302 105.216 448.302 103.6C448.302 101.984 448.686 100.528 449.454 99.232C450.222 97.92 451.278 96.896 452.622 96.16C453.966 95.424 455.486 95.056 457.182 95.056C458.462 95.056 459.638 95.264 460.71 95.68C461.782 96.08 462.686 96.68 463.422 97.48L462.318 98.608C460.99 97.296 459.302 96.64 457.254 96.64C455.894 96.64 454.662 96.944 453.558 97.552C452.47 98.144 451.614 98.976 450.99 100.048C450.366 101.104 450.054 102.288 450.054 103.6C450.054 104.912 450.366 106.096 450.99 107.152C451.614 108.208 452.47 109.04 453.558 109.648C454.646 110.256 455.87 110.56 457.23 110.56C458.958 110.56 460.422 110.128 461.622 109.264V103.6ZM501.953 110.464V112H490.073V95.2H501.593V96.736H491.849V102.712H500.537V104.224H491.849V110.464H501.953Z" fill="#3B668D"/>
</svg>
