<svg width="86" height="48" viewBox="0 0 86 48" fill="none" xmlns="http://www.w3.org/2000/svg">
<g clip-path="url(#clip0_1_6)" filter="url(#filter0_d_1_6)">
<path fill-rule="evenodd" clip-rule="evenodd" d="M23.89 0C34.8769 0 43.78 8.96107 43.78 20.0056C43.78 31.0501 34.8769 40 23.89 40C12.9031 40 4 31.0501 4 20.0056C4 8.96107 12.9031 0 23.89 0ZM24.3134 12.2095C19.8451 12.2095 16.2683 15.7827 16.2683 20.3304C16.2683 24.8446 19.8451 28.4178 24.3134 28.4178C26.4863 28.4178 28.3806 27.5441 29.7734 26.1439C29.9294 25.9871 29.9294 25.8303 29.7734 25.6735L28.2914 24.0829C28.1577 23.9261 27.9794 23.9261 27.8234 24.0605C26.8874 24.8894 25.7286 25.4046 24.2911 25.4046C21.5611 25.4046 19.4217 23.2316 19.4217 20.3304C19.4217 17.4069 21.5611 15.2226 24.2911 15.2226C25.7286 15.2226 26.8874 15.7379 27.8234 16.578C27.9794 16.7124 28.1577 16.7124 28.2914 16.5556L29.7734 14.9538C29.9294 14.797 29.9294 14.6402 29.7734 14.4833C28.3806 13.0944 26.4863 12.2095 24.3134 12.2095ZM54.2557 14.8934C55.788 14.8934 57.1305 15.4809 58.1088 16.4156C58.2197 16.5216 58.2197 16.6267 58.1088 16.7327L57.0668 17.8033C56.9724 17.9085 56.8465 17.9085 56.7355 17.8184C56.0721 17.2601 55.2505 16.913 54.24 16.913C52.3143 16.913 50.7978 18.3759 50.7978 20.3354C50.7978 22.2806 52.3143 23.7427 54.24 23.7427C55.2505 23.7427 56.0721 23.3964 56.7355 22.8381C56.8465 22.7479 56.9724 22.7479 57.0668 22.8531L58.1088 23.9238C58.2197 24.029 58.2197 24.1349 58.1088 24.2401C57.1305 25.1755 55.788 25.7631 54.2557 25.7631C51.0984 25.7631 48.5714 23.3656 48.5714 20.3354C48.5714 17.2902 51.0984 14.8934 54.2557 14.8934ZM61.646 18.0288C62.6887 18.0288 63.4623 18.4811 63.9998 19.1595L64.0777 18.4059C64.0942 18.2707 64.1729 18.1798 64.3146 18.1798H65.6886C65.8311 18.1798 65.9255 18.2707 65.9255 18.4059V25.3408C65.9255 25.4761 65.8311 25.567 65.6886 25.567H64.3146C64.1729 25.567 64.0942 25.4761 64.0777 25.3408L63.9833 24.6173C63.478 25.2356 62.7044 25.6729 61.646 25.6729C59.4676 25.6729 57.8882 23.9989 57.8882 21.8884C57.8882 19.7328 59.4676 18.0288 61.646 18.0288ZM68.5624 14.5617C68.7049 14.5617 68.7993 14.6519 68.7993 14.7879V25.3413C68.7993 25.4765 68.7049 25.5667 68.5624 25.5667H66.9515C66.8091 25.5667 66.7146 25.4765 66.7146 25.3413V14.7879C66.7146 14.6519 66.8091 14.5617 66.9515 14.5617H68.5624ZM79.0953 18.0142C80.7841 18.0142 82 19.16 82 21.1345V25.3413C82 25.4765 81.9056 25.5667 81.7631 25.5667H80.1522C80.0105 25.5667 79.9161 25.4765 79.9161 25.3413V21.4967C79.9161 20.275 79.2212 19.8527 78.4783 19.8527C77.3104 19.8527 76.7729 20.7431 76.7729 21.2705V25.3413C76.7729 25.4765 76.6785 25.5667 76.5368 25.5667H74.9259C74.7835 25.5667 74.689 25.4765 74.689 25.3413V21.4967C74.689 20.275 73.9941 19.8527 73.2363 19.8527C72.0676 19.8527 71.5309 20.9534 71.5309 21.3006V25.3413C71.5309 25.4765 71.4357 25.5667 71.294 25.5667H69.6839C69.5414 25.5667 69.447 25.4765 69.447 25.3413V18.4056C69.447 18.2704 69.5414 18.1795 69.6839 18.1795H71.2303C71.3727 18.1795 71.4522 18.2704 71.4679 18.4056L71.5309 19.3704V19.3861C72.0361 18.6017 72.8577 18.0142 73.9792 18.0142C75.0046 18.0142 75.8734 18.4965 76.3629 19.3861C76.9154 18.5867 77.8314 18.0142 79.0953 18.0142ZM61.8828 19.838C60.7299 19.838 59.8934 20.6825 59.8934 21.8734C59.8934 23.0192 60.7299 23.8629 61.8828 23.8629C63.0523 23.8629 63.8574 23.0042 63.8574 21.8734C63.8574 20.7576 63.0523 19.838 61.8828 19.838Z" fill="#353732"/>
</g>
<defs>
<filter id="filter0_d_1_6" x="0" y="0" width="86" height="48" filterUnits="userSpaceOnUse" color-interpolation-filters="sRGB">
<feFlood flood-opacity="0" result="BackgroundImageFix"/>
<feColorMatrix in="SourceAlpha" type="matrix" values="0 0 0 0 0 0 0 0 0 0 0 0 0 0 0 0 0 0 127 0" result="hardAlpha"/>
<feOffset dy="4"/>
<feGaussianBlur stdDeviation="2"/>
<feComposite in2="hardAlpha" operator="out"/>
<feColorMatrix type="matrix" values="0 0 0 0 0 0 0 0 0 0 0 0 0 0 0 0 0 0 0.25 0"/>
<feBlend mode="normal" in2="BackgroundImageFix" result="effect1_dropShadow_1_6"/>
<feBlend mode="normal" in="SourceGraphic" in2="effect1_dropShadow_1_6" result="shape"/>
</filter>
<clipPath id="clip0_1_6">
<rect width="78" height="40" fill="white" transform="translate(4)"/>
</clipPath>
</defs>
</svg>
