<svg width="579" height="121" viewBox="0 0 579 121" fill="none" xmlns="http://www.w3.org/2000/svg">
<path d="M185.105 39.6094H165.207V60H152.867V8.8125H187.109V18.3398H165.207V30.1172H185.105V39.6094ZM243.726 50.4375H226.816L223.863 60H210.68L229.453 8.8125H241.055L259.969 60H246.715L243.726 50.4375ZM229.769 40.9102H240.773L235.254 23.1562L229.769 40.9102ZM335.535 35.4609C335.535 40.1953 334.75 44.332 333.179 47.8711C331.609 51.3867 329.441 54.2109 326.675 56.3438L334.937 62.8828L327.308 69.3516L316.304 60.4922C315.273 60.6328 314.242 60.7031 313.211 60.7031C308.851 60.7031 304.984 59.6953 301.609 57.6797C298.234 55.6641 295.597 52.7812 293.699 49.0312C291.824 45.2812 290.851 40.9688 290.781 36.0938V33.3867C290.781 28.3477 291.695 23.918 293.523 20.0977C295.375 16.2773 298 13.3242 301.398 11.2383C304.82 9.15234 308.734 8.10938 313.14 8.10938C317.476 8.10938 321.343 9.14062 324.742 11.2031C328.14 13.2656 330.777 16.207 332.652 20.0273C334.55 23.8242 335.511 28.1836 335.535 33.1055V35.4609ZM322.984 33.3164C322.984 28.2305 322.129 24.375 320.418 21.75C318.73 19.1016 316.304 17.7773 313.14 17.7773C309.883 17.7773 307.433 19.0781 305.793 21.6797C304.152 24.2812 303.32 28.0898 303.297 33.1055V35.4609C303.297 40.5 304.129 44.3672 305.793 47.0625C307.457 49.7344 309.929 51.0703 313.211 51.0703C316.351 51.0703 318.754 49.7461 320.418 47.0977C322.105 44.4492 322.961 40.6406 322.984 35.6719V33.3164Z" fill="#3B668D"/>
<path d="M10.08 112.144C8.416 112.144 6.904 111.776 5.544 111.04C4.2 110.288 3.144 109.264 2.376 107.968C1.624 106.672 1.248 105.216 1.248 103.6C1.248 101.984 1.624 100.528 2.376 99.232C3.144 97.936 4.2 96.92 5.544 96.184C6.904 95.432 8.416 95.056 10.08 95.056C11.744 95.056 13.24 95.424 14.568 96.16C15.912 96.896 16.968 97.92 17.736 99.232C18.504 100.528 18.888 101.984 18.888 103.6C18.888 105.216 18.504 106.68 17.736 107.992C16.968 109.288 15.912 110.304 14.568 111.04C13.24 111.776 11.744 112.144 10.08 112.144ZM10.08 110.56C11.408 110.56 12.608 110.264 13.68 109.672C14.752 109.064 15.592 108.232 16.2 107.176C16.808 106.104 17.112 104.912 17.112 103.6C17.112 102.288 16.808 101.104 16.2 100.048C15.592 98.976 14.752 98.144 13.68 97.552C12.608 96.944 11.408 96.64 10.08 96.64C8.752 96.64 7.544 96.944 6.456 97.552C5.384 98.144 4.536 98.976 3.912 100.048C3.304 101.104 3 102.288 3 103.6C3 104.912 3.304 106.104 3.912 107.176C4.536 108.232 5.384 109.064 6.456 109.672C7.544 110.264 8.752 110.56 10.08 110.56ZM58.6288 95.2V112H57.1648L46.3648 98.368V112H44.5888V95.2H46.0528L56.8768 108.832V95.2H58.6288ZM85.8323 95.2H87.6083V110.464H97.0163V112H85.8323V95.2ZM121.685 95.2H123.461V112H121.685V95.2ZM164.687 95.2V112H163.223L152.423 98.368V112H150.647V95.2H152.111L162.935 108.832V95.2H164.687ZM203.771 110.464V112H191.891V95.2H203.411V96.736H193.667V102.712H202.355V104.224H193.667V110.464H203.771ZM262.299 112.144C261.051 112.144 259.851 111.944 258.699 111.544C257.563 111.144 256.683 110.616 256.059 109.96L256.755 108.592C257.363 109.2 258.171 109.696 259.179 110.08C260.187 110.448 261.227 110.632 262.299 110.632C263.803 110.632 264.931 110.36 265.683 109.816C266.435 109.256 266.811 108.536 266.811 107.656C266.811 106.984 266.603 106.448 266.187 106.048C265.787 105.648 265.291 105.344 264.699 105.136C264.107 104.912 263.283 104.672 262.227 104.416C260.963 104.096 259.955 103.792 259.203 103.504C258.451 103.2 257.803 102.744 257.259 102.136C256.731 101.528 256.467 100.704 256.467 99.664C256.467 98.816 256.691 98.048 257.139 97.36C257.587 96.656 258.275 96.096 259.203 95.68C260.131 95.264 261.283 95.056 262.659 95.056C263.619 95.056 264.555 95.192 265.467 95.464C266.395 95.72 267.195 96.08 267.867 96.544L267.267 97.96C266.563 97.496 265.811 97.152 265.011 96.928C264.211 96.688 263.427 96.568 262.659 96.568C261.187 96.568 260.075 96.856 259.323 97.432C258.587 97.992 258.219 98.72 258.219 99.616C258.219 100.288 258.419 100.832 258.819 101.248C259.235 101.648 259.747 101.96 260.355 102.184C260.979 102.392 261.811 102.624 262.851 102.88C264.083 103.184 265.075 103.488 265.827 103.792C266.595 104.08 267.243 104.528 267.771 105.136C268.299 105.728 268.563 106.536 268.563 107.56C268.563 108.408 268.331 109.184 267.867 109.888C267.419 110.576 266.723 111.128 265.779 111.544C264.835 111.944 263.675 112.144 262.299 112.144ZM297.182 96.736H291.278V95.2H304.862V96.736H298.958V112H297.182V96.736ZM336.529 112.144C334.865 112.144 333.353 111.776 331.993 111.04C330.649 110.288 329.593 109.264 328.825 107.968C328.073 106.672 327.697 105.216 327.697 103.6C327.697 101.984 328.073 100.528 328.825 99.232C329.593 97.936 330.649 96.92 331.993 96.184C333.353 95.432 334.865 95.056 336.529 95.056C338.193 95.056 339.689 95.424 341.017 96.16C342.361 96.896 343.417 97.92 344.185 99.232C344.953 100.528 345.337 101.984 345.337 103.6C345.337 105.216 344.953 106.68 344.185 107.992C343.417 109.288 342.361 110.304 341.017 111.04C339.689 111.776 338.193 112.144 336.529 112.144ZM336.529 110.56C337.857 110.56 339.057 110.264 340.129 109.672C341.201 109.064 342.041 108.232 342.649 107.176C343.257 106.104 343.561 104.912 343.561 103.6C343.561 102.288 343.257 101.104 342.649 100.048C342.041 98.976 341.201 98.144 340.129 97.552C339.057 96.944 337.857 96.64 336.529 96.64C335.201 96.64 333.993 96.944 332.905 97.552C331.833 98.144 330.985 98.976 330.361 100.048C329.753 101.104 329.449 102.288 329.449 103.6C329.449 104.912 329.753 106.104 330.361 107.176C330.985 108.232 331.833 109.064 332.905 109.672C333.993 110.264 335.201 110.56 336.529 110.56ZM382.51 112L378.67 106.6C378.238 106.648 377.79 106.672 377.326 106.672H372.814V112H371.038V95.2H377.326C379.47 95.2 381.15 95.712 382.366 96.736C383.582 97.76 384.19 99.168 384.19 100.96C384.19 102.272 383.854 103.384 383.182 104.296C382.526 105.192 381.582 105.84 380.35 106.24L384.454 112H382.51ZM377.278 105.16C378.942 105.16 380.214 104.792 381.094 104.056C381.974 103.32 382.414 102.288 382.414 100.96C382.414 99.6 381.974 98.56 381.094 97.84C380.214 97.104 378.942 96.736 377.278 96.736H372.814V105.16H377.278ZM420.637 107.512H411.277L409.261 112H407.413L415.093 95.2H416.845L424.525 112H422.653L420.637 107.512ZM419.989 106.072L415.957 97.048L411.925 106.072H419.989ZM460.622 103.6H462.326V110.008C461.542 110.696 460.614 111.224 459.542 111.592C458.47 111.96 457.342 112.144 456.158 112.144C454.478 112.144 452.966 111.776 451.622 111.04C450.278 110.304 449.222 109.288 448.454 107.992C447.686 106.68 447.302 105.216 447.302 103.6C447.302 101.984 447.686 100.528 448.454 99.232C449.222 97.92 450.278 96.896 451.622 96.16C452.966 95.424 454.486 95.056 456.182 95.056C457.462 95.056 458.638 95.264 459.71 95.68C460.782 96.08 461.686 96.68 462.422 97.48L461.318 98.608C459.99 97.296 458.302 96.64 456.254 96.64C454.894 96.64 453.662 96.944 452.558 97.552C451.47 98.144 450.614 98.976 449.99 100.048C449.366 101.104 449.054 102.288 449.054 103.6C449.054 104.912 449.366 106.096 449.99 107.152C450.614 108.208 451.47 109.04 452.558 109.648C453.646 110.256 454.87 110.56 456.23 110.56C457.958 110.56 459.422 110.128 460.622 109.264V103.6ZM500.953 110.464V112H489.073V95.2H500.593V96.736H490.849V102.712H499.537V104.224H490.849V110.464H500.953Z" fill="#3B668D"/>
</svg>
