<svg width="1380" height="327" viewBox="0 0 1380 327" fill="none" xmlns="http://www.w3.org/2000/svg">
<path d="M0 0H1380V327H0V0Z" fill="#1D1F2E"/>
<path d="M563.52 93.144C563.016 93.144 562.554 93.054 562.134 92.874C561.714 92.69 561.376 92.42 561.12 92.064C560.864 91.708 560.732 91.268 560.724 90.744H561.636C561.636 91.096 561.722 91.386 561.894 91.614C562.066 91.838 562.294 92.006 562.578 92.118C562.862 92.226 563.172 92.28 563.508 92.28C563.872 92.28 564.188 92.222 564.456 92.106C564.724 91.99 564.93 91.838 565.074 91.65C565.222 91.458 565.296 91.248 565.296 91.02C565.296 90.7 565.198 90.442 565.002 90.246C564.806 90.046 564.516 89.884 564.132 89.76L562.8 89.292C562.176 89.068 561.704 88.812 561.384 88.524C561.064 88.236 560.904 87.832 560.904 87.312C560.904 86.728 561.128 86.252 561.576 85.884C562.028 85.516 562.668 85.332 563.496 85.332C564.264 85.332 564.864 85.51 565.296 85.866C565.728 86.218 565.976 86.692 566.04 87.288H565.116C565.056 86.94 564.892 86.67 564.624 86.478C564.36 86.282 563.984 86.184 563.496 86.184C563 86.184 562.614 86.294 562.338 86.514C562.062 86.734 561.924 87.012 561.924 87.348C561.924 87.624 562.01 87.844 562.182 88.008C562.358 88.168 562.632 88.312 563.004 88.44L564.564 88.98C565.104 89.16 565.53 89.412 565.842 89.736C566.158 90.06 566.316 90.48 566.316 90.996C566.316 91.396 566.208 91.758 565.992 92.082C565.78 92.406 565.466 92.664 565.05 92.856C564.634 93.048 564.124 93.144 563.52 93.144ZM570.362 93V85.464H571.298V93H570.362ZM578.378 93.144C577.778 93.144 577.232 92.988 576.74 92.676C576.248 92.364 575.856 91.922 575.564 91.35C575.272 90.778 575.126 90.1 575.126 89.316C575.126 88.664 575.22 88.09 575.408 87.594C575.596 87.098 575.854 86.682 576.182 86.346C576.51 86.01 576.886 85.758 577.31 85.59C577.738 85.418 578.19 85.332 578.666 85.332C579.254 85.332 579.77 85.454 580.214 85.698C580.658 85.938 581.038 86.32 581.354 86.844L580.466 87.156C580.198 86.824 579.91 86.58 579.602 86.424C579.298 86.264 578.974 86.184 578.63 86.184C578.178 86.184 577.762 86.31 577.382 86.562C577.002 86.814 576.696 87.174 576.464 87.642C576.236 88.11 576.122 88.668 576.122 89.316C576.122 89.892 576.216 90.404 576.404 90.852C576.592 91.296 576.858 91.646 577.202 91.902C577.55 92.154 577.962 92.28 578.438 92.28C578.802 92.28 579.128 92.196 579.416 92.028C579.708 91.86 579.938 91.608 580.106 91.272C580.274 90.932 580.358 90.504 580.358 89.988H580.646C580.646 90.628 580.57 91.184 580.418 91.656C580.266 92.128 580.022 92.494 579.686 92.754C579.354 93.014 578.918 93.144 578.378 93.144ZM580.526 93L580.358 91.224V89.964L578.462 89.904V89.268H581.27V93H580.526ZM585.436 85.464H586.552L590.38 91.668H590.296V85.464H591.232V93H590.188L586.228 86.592H586.372V93H585.436V85.464ZM600.331 85.464H601.267V90.276C601.267 90.984 601.445 91.496 601.801 91.812C602.157 92.124 602.623 92.28 603.199 92.28C603.771 92.28 604.233 92.124 604.585 91.812C604.941 91.496 605.119 90.984 605.119 90.276V85.464H606.055V90.276C606.055 90.908 605.937 91.438 605.701 91.866C605.469 92.29 605.139 92.61 604.711 92.826C604.283 93.038 603.779 93.144 603.199 93.144C602.619 93.144 602.113 93.038 601.681 92.826C601.253 92.61 600.921 92.29 600.685 91.866C600.449 91.438 600.331 90.908 600.331 90.276V85.464ZM610.315 93V85.464H612.739C613.567 85.464 614.199 85.674 614.635 86.094C615.075 86.51 615.295 87.076 615.295 87.792C615.295 88.5 615.075 89.062 614.635 89.478C614.199 89.89 613.567 90.096 612.739 90.096H611.263V93H610.315ZM611.263 89.28H612.739C613.263 89.28 613.659 89.146 613.927 88.878C614.199 88.61 614.335 88.248 614.335 87.792C614.335 87.328 614.199 86.958 613.927 86.682C613.659 86.406 613.263 86.268 612.739 86.268H611.263V89.28ZM622.931 93L625.523 85.464H626.663L629.195 93H628.211L627.575 91.068H624.575L623.915 93H622.931ZM624.815 90.336H627.335L626.075 86.604L624.815 90.336ZM632.71 85.464H633.826L637.654 91.668H637.57V85.464H638.506V93H637.462L633.502 86.592H633.646V93H632.71V85.464ZM642.925 85.464H645.133C645.893 85.464 646.553 85.62 647.113 85.932C647.673 86.24 648.107 86.676 648.415 87.24C648.723 87.804 648.877 88.468 648.877 89.232C648.877 89.988 648.723 90.648 648.415 91.212C648.107 91.776 647.673 92.216 647.113 92.532C646.553 92.844 645.893 93 645.133 93H642.925V85.464ZM643.861 86.292V92.184H645.133C645.701 92.184 646.189 92.056 646.597 91.8C647.009 91.544 647.325 91.194 647.545 90.75C647.769 90.302 647.881 89.796 647.881 89.232C647.881 88.664 647.769 88.16 647.545 87.72C647.325 87.276 647.009 86.928 646.597 86.676C646.189 86.42 645.701 86.292 645.133 86.292H643.861ZM660.346 93.144C659.746 93.144 659.2 92.988 658.708 92.676C658.216 92.364 657.824 91.922 657.532 91.35C657.24 90.778 657.094 90.1 657.094 89.316C657.094 88.664 657.188 88.09 657.376 87.594C657.564 87.098 657.822 86.682 658.15 86.346C658.478 86.01 658.854 85.758 659.278 85.59C659.706 85.418 660.158 85.332 660.634 85.332C661.222 85.332 661.738 85.454 662.182 85.698C662.626 85.938 663.006 86.32 663.322 86.844L662.434 87.156C662.166 86.824 661.878 86.58 661.57 86.424C661.266 86.264 660.942 86.184 660.598 86.184C660.146 86.184 659.73 86.31 659.35 86.562C658.97 86.814 658.664 87.174 658.432 87.642C658.204 88.11 658.09 88.668 658.09 89.316C658.09 89.892 658.184 90.404 658.372 90.852C658.56 91.296 658.826 91.646 659.17 91.902C659.518 92.154 659.93 92.28 660.406 92.28C660.77 92.28 661.096 92.196 661.384 92.028C661.676 91.86 661.906 91.608 662.074 91.272C662.242 90.932 662.326 90.504 662.326 89.988H662.614C662.614 90.628 662.538 91.184 662.386 91.656C662.234 92.128 661.99 92.494 661.654 92.754C661.322 93.014 660.886 93.144 660.346 93.144ZM662.494 93L662.326 91.224V89.964L660.43 89.904V89.268H663.238V93H662.494ZM667.405 93V85.464H672.049V86.268H668.341V88.8H671.833V89.604H668.341V92.184H672.049V93H667.405ZM675.015 86.268V85.464H680.883V86.268H678.201L678.411 86.052V93H677.475V86.052L677.685 86.268H675.015ZM689.015 93V85.464H693.599V86.268H689.951V88.776H693.347V89.58H689.951V93H689.015ZM697.308 93V85.464H699.936C700.796 85.464 701.446 85.67 701.886 86.082C702.33 86.49 702.552 87.028 702.552 87.696C702.552 88.356 702.33 88.892 701.886 89.304C701.446 89.712 700.796 89.916 699.936 89.916H698.244V93H697.308ZM701.532 93L699.372 89.58H700.392L702.744 93H701.532ZM698.244 89.256H699.864C700.428 89.256 700.856 89.118 701.148 88.842C701.444 88.562 701.592 88.2 701.592 87.756C701.592 87.3 701.45 86.938 701.166 86.67C700.886 86.402 700.476 86.268 699.936 86.268H698.244V89.256ZM706.643 93V85.464H711.287V86.268H707.579V88.8H711.071V89.604H707.579V92.184H711.287V93H706.643ZM715.382 93V85.464H720.026V86.268H716.318V88.8H719.81V89.604H716.318V92.184H720.026V93H715.382ZM731.596 93.144C730.932 93.144 730.36 92.978 729.88 92.646C729.4 92.31 729.03 91.846 728.77 91.254C728.51 90.658 728.38 89.968 728.38 89.184C728.38 88.348 728.52 87.644 728.8 87.072C729.084 86.5 729.468 86.068 729.952 85.776C730.44 85.48 730.988 85.332 731.596 85.332C732.4 85.332 733.046 85.534 733.534 85.938C734.026 86.338 734.364 86.86 734.548 87.504L733.54 87.708C733.384 87.24 733.134 86.868 732.79 86.592C732.45 86.312 732.052 86.172 731.596 86.172C731.2 86.172 730.834 86.286 730.498 86.514C730.166 86.738 729.898 87.074 729.694 87.522C729.49 87.97 729.388 88.524 729.388 89.184C729.388 89.784 729.468 90.318 729.628 90.786C729.792 91.254 730.036 91.622 730.36 91.89C730.688 92.158 731.1 92.292 731.596 92.292C732.192 92.292 732.664 92.132 733.012 91.812C733.364 91.492 733.54 91.072 733.54 90.552H734.56C734.56 91.092 734.436 91.556 734.188 91.944C733.94 92.328 733.592 92.624 733.144 92.832C732.7 93.04 732.184 93.144 731.596 93.144ZM741.003 93.144C740.379 93.144 739.821 93 739.329 92.712C738.837 92.424 738.449 91.992 738.165 91.416C737.881 90.836 737.739 90.112 737.739 89.244C737.739 88.364 737.881 87.636 738.165 87.06C738.449 86.48 738.837 86.048 739.329 85.764C739.821 85.476 740.379 85.332 741.003 85.332C741.627 85.332 742.185 85.476 742.677 85.764C743.169 86.052 743.557 86.486 743.841 87.066C744.125 87.646 744.267 88.372 744.267 89.244C744.267 90.12 744.125 90.848 743.841 91.428C743.557 92.004 743.169 92.434 742.677 92.718C742.185 93.002 741.627 93.144 741.003 93.144ZM741.003 92.28C741.711 92.28 742.269 92.022 742.677 91.506C743.089 90.99 743.295 90.232 743.295 89.232C743.295 88.252 743.089 87.498 742.677 86.97C742.269 86.438 741.711 86.172 741.003 86.172C740.303 86.172 739.745 86.438 739.329 86.97C738.917 87.502 738.711 88.26 738.711 89.244C738.711 90.24 738.917 90.996 739.329 91.512C739.745 92.024 740.303 92.28 741.003 92.28ZM748.085 93V85.464H752.669V86.268H749.021V88.776H752.417V89.58H749.021V93H748.085ZM756.378 93V85.464H760.962V86.268H757.314V88.776H760.71V89.58H757.314V93H756.378ZM764.659 93V85.464H769.303V86.268H765.595V88.8H769.087V89.604H765.595V92.184H769.303V93H764.659ZM773.397 93V85.464H778.041V86.268H774.333V88.8H777.825V89.604H774.333V92.184H778.041V93H773.397ZM786.995 93V85.464H789.815C790.367 85.464 790.825 85.556 791.189 85.74C791.553 85.92 791.825 86.16 792.005 86.46C792.185 86.756 792.275 87.08 792.275 87.432C792.275 87.864 792.155 88.24 791.915 88.56C791.679 88.876 791.323 89.092 790.847 89.208C791.155 89.256 791.425 89.366 791.657 89.538C791.893 89.706 792.077 89.914 792.209 90.162C792.341 90.406 792.407 90.668 792.407 90.948C792.407 91.204 792.363 91.454 792.275 91.698C792.191 91.942 792.049 92.162 791.849 92.358C791.649 92.554 791.383 92.71 791.051 92.826C790.719 92.942 790.307 93 789.815 93H786.995ZM787.931 92.184H789.803C790.375 92.184 790.785 92.064 791.033 91.824C791.285 91.584 791.411 91.276 791.411 90.9C791.411 90.52 791.275 90.216 791.003 89.988C790.731 89.756 790.331 89.64 789.803 89.64H787.931V92.184ZM787.931 86.268V88.836H789.779C790.247 88.836 790.619 88.722 790.895 88.494C791.175 88.262 791.315 87.936 791.315 87.516C791.315 87.124 791.179 86.818 790.907 86.598C790.639 86.378 790.267 86.268 789.791 86.268H787.931ZM795.548 93L798.14 85.464H799.28L801.812 93H800.828L800.192 91.068H797.192L796.532 93H795.548ZM797.432 90.336H799.952L798.692 86.604L797.432 90.336ZM807.991 93.144C807.391 93.144 806.845 92.988 806.353 92.676C805.861 92.364 805.469 91.922 805.177 91.35C804.885 90.778 804.739 90.1 804.739 89.316C804.739 88.664 804.833 88.09 805.021 87.594C805.209 87.098 805.467 86.682 805.795 86.346C806.123 86.01 806.499 85.758 806.923 85.59C807.351 85.418 807.803 85.332 808.279 85.332C808.867 85.332 809.383 85.454 809.827 85.698C810.271 85.938 810.651 86.32 810.967 86.844L810.079 87.156C809.811 86.824 809.523 86.58 809.215 86.424C808.911 86.264 808.587 86.184 808.243 86.184C807.791 86.184 807.375 86.31 806.995 86.562C806.615 86.814 806.309 87.174 806.077 87.642C805.849 88.11 805.735 88.668 805.735 89.316C805.735 89.892 805.829 90.404 806.017 90.852C806.205 91.296 806.471 91.646 806.815 91.902C807.163 92.154 807.575 92.28 808.051 92.28C808.415 92.28 808.741 92.196 809.029 92.028C809.321 91.86 809.551 91.608 809.719 91.272C809.887 90.932 809.971 90.504 809.971 89.988H810.259C810.259 90.628 810.183 91.184 810.031 91.656C809.879 92.128 809.635 92.494 809.299 92.754C808.967 93.014 808.531 93.144 807.991 93.144ZM810.139 93L809.971 91.224V89.964L808.075 89.904V89.268H810.883V93H810.139ZM817.474 93.144C816.97 93.144 816.508 93.054 816.088 92.874C815.668 92.69 815.33 92.42 815.074 92.064C814.818 91.708 814.686 91.268 814.678 90.744H815.59C815.59 91.096 815.676 91.386 815.848 91.614C816.02 91.838 816.248 92.006 816.532 92.118C816.816 92.226 817.126 92.28 817.462 92.28C817.826 92.28 818.142 92.222 818.41 92.106C818.678 91.99 818.884 91.838 819.028 91.65C819.176 91.458 819.25 91.248 819.25 91.02C819.25 90.7 819.152 90.442 818.956 90.246C818.76 90.046 818.47 89.884 818.086 89.76L816.754 89.292C816.13 89.068 815.658 88.812 815.338 88.524C815.018 88.236 814.858 87.832 814.858 87.312C814.858 86.728 815.082 86.252 815.53 85.884C815.982 85.516 816.622 85.332 817.45 85.332C818.218 85.332 818.818 85.51 819.25 85.866C819.682 86.218 819.93 86.692 819.994 87.288H819.07C819.01 86.94 818.846 86.67 818.578 86.478C818.314 86.282 817.938 86.184 817.45 86.184C816.954 86.184 816.568 86.294 816.292 86.514C816.016 86.734 815.878 87.012 815.878 87.348C815.878 87.624 815.964 87.844 816.136 88.008C816.312 88.168 816.586 88.312 816.958 88.44L818.518 88.98C819.058 89.16 819.484 89.412 819.796 89.736C820.112 90.06 820.27 90.48 820.27 90.996C820.27 91.396 820.162 91.758 819.946 92.082C819.734 92.406 819.42 92.664 819.004 92.856C818.588 93.048 818.078 93.144 817.474 93.144Z" fill="white"/>
<path d="M510 88H540V89H510V88Z" fill="#D2D2D5" fill-opacity="0.1"/>
<path d="M841 88H871V89H841V88Z" fill="#D2D2D5" fill-opacity="0.1"/>
<path d="M446.5 188.5H795.5V241.5H446.5V188.5Z" stroke="#2F303E"/>
<g filter="url(#filter0_d_1_307)">
<path d="M806 188H935V242H806V188Z" fill="white"/>
</g>
<path d="M468.156 219.144C467.492 219.144 466.92 218.978 466.44 218.646C465.96 218.31 465.59 217.846 465.33 217.254C465.07 216.658 464.94 215.968 464.94 215.184C464.94 214.348 465.08 213.644 465.36 213.072C465.644 212.5 466.028 212.068 466.512 211.776C467 211.48 467.548 211.332 468.156 211.332C468.96 211.332 469.606 211.534 470.094 211.938C470.586 212.338 470.924 212.86 471.108 213.504L470.1 213.708C469.944 213.24 469.694 212.868 469.35 212.592C469.01 212.312 468.612 212.172 468.156 212.172C467.76 212.172 467.394 212.286 467.058 212.514C466.726 212.738 466.458 213.074 466.254 213.522C466.05 213.97 465.948 214.524 465.948 215.184C465.948 215.784 466.028 216.318 466.188 216.786C466.352 217.254 466.596 217.622 466.92 217.89C467.248 218.158 467.66 218.292 468.156 218.292C468.752 218.292 469.224 218.132 469.572 217.812C469.924 217.492 470.1 217.072 470.1 216.552H471.12C471.12 217.092 470.996 217.556 470.748 217.944C470.5 218.328 470.152 218.624 469.704 218.832C469.26 219.04 468.744 219.144 468.156 219.144ZM474.732 211.464H475.668V216.276C475.668 216.984 475.846 217.496 476.202 217.812C476.558 218.124 477.024 218.28 477.6 218.28C478.172 218.28 478.634 218.124 478.986 217.812C479.342 217.496 479.52 216.984 479.52 216.276V211.464H480.456V216.276C480.456 216.908 480.338 217.438 480.102 217.866C479.87 218.29 479.54 218.61 479.112 218.826C478.684 219.038 478.18 219.144 477.6 219.144C477.02 219.144 476.514 219.038 476.082 218.826C475.654 218.61 475.322 218.29 475.086 217.866C474.85 217.438 474.732 216.908 474.732 216.276V211.464ZM487.151 219.144C486.647 219.144 486.185 219.054 485.765 218.874C485.345 218.69 485.007 218.42 484.751 218.064C484.495 217.708 484.363 217.268 484.355 216.744H485.267C485.267 217.096 485.353 217.386 485.525 217.614C485.697 217.838 485.925 218.006 486.209 218.118C486.493 218.226 486.803 218.28 487.139 218.28C487.503 218.28 487.819 218.222 488.087 218.106C488.355 217.99 488.561 217.838 488.705 217.65C488.853 217.458 488.927 217.248 488.927 217.02C488.927 216.7 488.829 216.442 488.633 216.246C488.437 216.046 488.147 215.884 487.763 215.76L486.431 215.292C485.807 215.068 485.335 214.812 485.015 214.524C484.695 214.236 484.535 213.832 484.535 213.312C484.535 212.728 484.759 212.252 485.207 211.884C485.659 211.516 486.299 211.332 487.127 211.332C487.895 211.332 488.495 211.51 488.927 211.866C489.359 212.218 489.607 212.692 489.671 213.288H488.747C488.687 212.94 488.523 212.67 488.255 212.478C487.991 212.282 487.615 212.184 487.127 212.184C486.631 212.184 486.245 212.294 485.969 212.514C485.693 212.734 485.555 213.012 485.555 213.348C485.555 213.624 485.641 213.844 485.813 214.008C485.989 214.168 486.263 214.312 486.635 214.44L488.195 214.98C488.735 215.16 489.161 215.412 489.473 215.736C489.789 216.06 489.947 216.48 489.947 216.996C489.947 217.396 489.839 217.758 489.623 218.082C489.411 218.406 489.097 218.664 488.681 218.856C488.265 219.048 487.755 219.144 487.151 219.144ZM492.853 212.268V211.464H498.721V212.268H496.039L496.249 212.052V219H495.313V212.052L495.523 212.268H492.853ZM504.669 219.144C504.045 219.144 503.487 219 502.995 218.712C502.503 218.424 502.115 217.992 501.831 217.416C501.547 216.836 501.405 216.112 501.405 215.244C501.405 214.364 501.547 213.636 501.831 213.06C502.115 212.48 502.503 212.048 502.995 211.764C503.487 211.476 504.045 211.332 504.669 211.332C505.293 211.332 505.851 211.476 506.343 211.764C506.835 212.052 507.223 212.486 507.507 213.066C507.791 213.646 507.933 214.372 507.933 215.244C507.933 216.12 507.791 216.848 507.507 217.428C507.223 218.004 506.835 218.434 506.343 218.718C505.851 219.002 505.293 219.144 504.669 219.144ZM504.669 218.28C505.377 218.28 505.935 218.022 506.343 217.506C506.755 216.99 506.961 216.232 506.961 215.232C506.961 214.252 506.755 213.498 506.343 212.97C505.935 212.438 505.377 212.172 504.669 212.172C503.969 212.172 503.411 212.438 502.995 212.97C502.583 213.502 502.377 214.26 502.377 215.244C502.377 216.24 502.583 216.996 502.995 217.512C503.411 218.024 503.969 218.28 504.669 218.28ZM511.751 211.464H513.095L515.687 216.672H515.591L518.183 211.464H519.491V219H518.543V212.436H518.711L515.951 218.052H515.327L512.579 212.472H512.687V219H511.751V211.464ZM523.899 219V211.464H528.543V212.268H524.835V214.8H528.327V215.604H524.835V218.184H528.543V219H523.899ZM532.65 219V211.464H535.278C536.138 211.464 536.788 211.67 537.228 212.082C537.672 212.49 537.894 213.028 537.894 213.696C537.894 214.356 537.672 214.892 537.228 215.304C536.788 215.712 536.138 215.916 535.278 215.916H533.586V219H532.65ZM536.874 219L534.714 215.58H535.734L538.086 219H536.874ZM533.586 215.256H535.206C535.77 215.256 536.198 215.118 536.49 214.842C536.786 214.562 536.934 214.2 536.934 213.756C536.934 213.3 536.792 212.938 536.508 212.67C536.228 212.402 535.818 212.268 535.278 212.268H533.586V215.256ZM547.313 221.16C546.449 221.16 545.665 221.04 544.961 220.8C544.261 220.56 543.659 220.22 543.155 219.78C542.651 219.344 542.263 218.828 541.991 218.232C541.723 217.636 541.589 216.982 541.589 216.27C541.589 215.566 541.719 214.914 541.979 214.314C542.243 213.714 542.611 213.192 543.083 212.748C543.555 212.3 544.111 211.952 544.751 211.704C545.395 211.456 546.097 211.332 546.857 211.332C547.565 211.332 548.203 211.438 548.771 211.65C549.339 211.862 549.825 212.158 550.229 212.538C550.637 212.918 550.949 213.36 551.165 213.864C551.381 214.364 551.489 214.902 551.489 215.478C551.489 215.962 551.417 216.4 551.273 216.792C551.129 217.18 550.933 217.514 550.685 217.794C550.441 218.074 550.165 218.29 549.857 218.442C549.549 218.59 549.231 218.664 548.903 218.664C548.575 218.664 548.305 218.59 548.093 218.442C547.881 218.29 547.757 218.08 547.721 217.812L547.685 217.632C547.549 217.912 547.361 218.154 547.121 218.358C546.881 218.562 546.565 218.664 546.173 218.664C545.833 218.664 545.515 218.578 545.219 218.406C544.927 218.234 544.691 217.99 544.511 217.674C544.331 217.358 544.241 216.982 544.241 216.546C544.241 216.162 544.313 215.804 544.457 215.472C544.601 215.136 544.797 214.842 545.045 214.59C545.297 214.334 545.581 214.136 545.897 213.996C546.217 213.852 546.553 213.78 546.905 213.78C547.385 213.78 547.765 213.924 548.045 214.212C548.325 214.5 548.465 214.936 548.465 215.52V217.344C548.465 217.56 548.501 217.718 548.573 217.818C548.649 217.918 548.767 217.968 548.927 217.968C549.155 217.968 549.393 217.87 549.641 217.674C549.889 217.478 550.099 217.194 550.271 216.822C550.443 216.45 550.529 216.002 550.529 215.478C550.529 214.834 550.383 214.264 550.091 213.768C549.799 213.268 549.381 212.876 548.837 212.592C548.297 212.304 547.651 212.16 546.899 212.16C546.243 212.16 545.647 212.27 545.111 212.49C544.579 212.71 544.121 213.014 543.737 213.402C543.357 213.79 543.063 214.24 542.855 214.752C542.651 215.26 542.549 215.806 542.549 216.39C542.549 217.182 542.739 217.88 543.119 218.484C543.503 219.084 544.051 219.554 544.763 219.894C545.475 220.234 546.325 220.404 547.313 220.404V221.16ZM546.305 217.908C546.621 217.908 546.883 217.812 547.091 217.62C547.303 217.424 547.497 217.152 547.673 216.804V215.52C547.673 215.192 547.615 214.942 547.499 214.77C547.383 214.598 547.189 214.512 546.917 214.512C546.649 214.512 546.377 214.596 546.101 214.764C545.825 214.928 545.593 215.164 545.405 215.472C545.221 215.776 545.129 216.136 545.129 216.552C545.129 216.992 545.239 217.328 545.459 217.56C545.683 217.792 545.965 217.908 546.305 217.908ZM557.875 219.144C557.211 219.144 556.639 218.978 556.159 218.646C555.679 218.31 555.309 217.846 555.049 217.254C554.789 216.658 554.659 215.968 554.659 215.184C554.659 214.348 554.799 213.644 555.079 213.072C555.363 212.5 555.747 212.068 556.231 211.776C556.719 211.48 557.267 211.332 557.875 211.332C558.679 211.332 559.325 211.534 559.813 211.938C560.305 212.338 560.643 212.86 560.827 213.504L559.819 213.708C559.663 213.24 559.413 212.868 559.069 212.592C558.729 212.312 558.331 212.172 557.875 212.172C557.479 212.172 557.113 212.286 556.777 212.514C556.445 212.738 556.177 213.074 555.973 213.522C555.769 213.97 555.667 214.524 555.667 215.184C555.667 215.784 555.747 216.318 555.907 216.786C556.071 217.254 556.315 217.622 556.639 217.89C556.967 218.158 557.379 218.292 557.875 218.292C558.471 218.292 558.943 218.132 559.291 217.812C559.643 217.492 559.819 217.072 559.819 216.552H560.839C560.839 217.092 560.715 217.556 560.467 217.944C560.219 218.328 559.871 218.624 559.423 218.832C558.979 219.04 558.463 219.144 557.875 219.144ZM567.282 219.144C566.658 219.144 566.1 219 565.608 218.712C565.116 218.424 564.728 217.992 564.444 217.416C564.16 216.836 564.018 216.112 564.018 215.244C564.018 214.364 564.16 213.636 564.444 213.06C564.728 212.48 565.116 212.048 565.608 211.764C566.1 211.476 566.658 211.332 567.282 211.332C567.906 211.332 568.464 211.476 568.956 211.764C569.448 212.052 569.836 212.486 570.12 213.066C570.404 213.646 570.546 214.372 570.546 215.244C570.546 216.12 570.404 216.848 570.12 217.428C569.836 218.004 569.448 218.434 568.956 218.718C568.464 219.002 567.906 219.144 567.282 219.144ZM567.282 218.28C567.99 218.28 568.548 218.022 568.956 217.506C569.368 216.99 569.574 216.232 569.574 215.232C569.574 214.252 569.368 213.498 568.956 212.97C568.548 212.438 567.99 212.172 567.282 212.172C566.582 212.172 566.024 212.438 565.608 212.97C565.196 213.502 564.99 214.26 564.99 215.244C564.99 216.24 565.196 216.996 565.608 217.512C566.024 218.024 566.582 218.28 567.282 218.28ZM574.364 219V211.464H578.948V212.268H575.3V214.776H578.696V215.58H575.3V219H574.364ZM582.657 219V211.464H587.241V212.268H583.593V214.776H586.989V215.58H583.593V219H582.657ZM590.938 219V211.464H595.582V212.268H591.874V214.8H595.366V215.604H591.874V218.184H595.582V219H590.938ZM599.677 219V211.464H604.321V212.268H600.613V214.8H604.105V215.604H600.613V218.184H604.321V219H599.677ZM610.839 219.144C610.335 219.144 609.873 219.054 609.453 218.874C609.033 218.69 608.695 218.42 608.439 218.064C608.183 217.708 608.051 217.268 608.043 216.744H608.955C608.955 217.096 609.041 217.386 609.213 217.614C609.385 217.838 609.613 218.006 609.897 218.118C610.181 218.226 610.491 218.28 610.827 218.28C611.191 218.28 611.507 218.222 611.775 218.106C612.043 217.99 612.249 217.838 612.393 217.65C612.541 217.458 612.615 217.248 612.615 217.02C612.615 216.7 612.517 216.442 612.321 216.246C612.125 216.046 611.835 215.884 611.451 215.76L610.119 215.292C609.495 215.068 609.023 214.812 608.703 214.524C608.383 214.236 608.223 213.832 608.223 213.312C608.223 212.728 608.447 212.252 608.895 211.884C609.347 211.516 609.987 211.332 610.815 211.332C611.583 211.332 612.183 211.51 612.615 211.866C613.047 212.218 613.295 212.692 613.359 213.288H612.435C612.375 212.94 612.211 212.67 611.943 212.478C611.679 212.282 611.303 212.184 610.815 212.184C610.319 212.184 609.933 212.294 609.657 212.514C609.381 212.734 609.243 213.012 609.243 213.348C609.243 213.624 609.329 213.844 609.501 214.008C609.677 214.168 609.951 214.312 610.323 214.44L611.883 214.98C612.423 215.16 612.849 215.412 613.161 215.736C613.477 216.06 613.635 216.48 613.635 216.996C613.635 217.396 613.527 217.758 613.311 218.082C613.099 218.406 612.785 218.664 612.369 218.856C611.953 219.048 611.443 219.144 610.839 219.144ZM616.541 212.268V211.464H622.409V212.268H619.727L619.937 212.052V219H619.001V212.052L619.211 212.268H616.541ZM624.588 211.464H625.716L627.876 215.124H627.636L629.832 211.464H630.948L628.224 215.904V219H627.276V215.904L624.588 211.464ZM635.214 211.464V218.184H638.574V219H634.278V211.464H635.214ZM641.88 219V211.464H646.524V212.268H642.816V214.8H646.308V215.604H642.816V218.184H646.524V219H641.88ZM649.778 218.442C649.778 218.254 649.844 218.092 649.976 217.956C650.108 217.82 650.274 217.752 650.474 217.752C650.674 217.752 650.844 217.82 650.984 217.956C651.124 218.092 651.194 218.254 651.194 218.442C651.194 218.63 651.124 218.788 650.984 218.916C650.844 219.044 650.674 219.108 650.474 219.108C650.274 219.108 650.108 219.044 649.976 218.916C649.844 218.784 649.778 218.626 649.778 218.442ZM654.775 219V211.464H655.711V219H654.775ZM662.802 219.144C662.178 219.144 661.62 219 661.128 218.712C660.636 218.424 660.248 217.992 659.964 217.416C659.68 216.836 659.538 216.112 659.538 215.244C659.538 214.364 659.68 213.636 659.964 213.06C660.248 212.48 660.636 212.048 661.128 211.764C661.62 211.476 662.178 211.332 662.802 211.332C663.426 211.332 663.984 211.476 664.476 211.764C664.968 212.052 665.356 212.486 665.64 213.066C665.924 213.646 666.066 214.372 666.066 215.244C666.066 216.12 665.924 216.848 665.64 217.428C665.356 218.004 664.968 218.434 664.476 218.718C663.984 219.002 663.426 219.144 662.802 219.144ZM662.802 218.28C663.51 218.28 664.068 218.022 664.476 217.506C664.888 216.99 665.094 216.232 665.094 215.232C665.094 214.252 664.888 213.498 664.476 212.97C664.068 212.438 663.51 212.172 662.802 212.172C662.102 212.172 661.544 212.438 661.128 212.97C660.716 213.502 660.51 214.26 660.51 215.244C660.51 216.24 660.716 216.996 661.128 217.512C661.544 218.024 662.102 218.28 662.802 218.28Z" fill="white"/>
<a href="mailto:customer@coffeestyle.io">
<rect fill="black" fill-opacity="0" x="0.328125" y="1.986" width="202.344" height="14.028"/>
</a>
<path d="M577.654 150.432C575.662 150.432 573.946 149.934 572.506 148.938C571.066 147.93 569.956 146.538 569.176 144.762C568.396 142.974 568.006 140.904 568.006 138.552C568.006 136.044 568.426 133.932 569.266 132.216C570.118 130.5 571.27 129.204 572.722 128.328C574.186 127.44 575.83 126.996 577.654 126.996C580.066 126.996 582.004 127.602 583.468 128.814C584.944 130.014 585.958 131.58 586.51 133.512L583.486 134.124C583.018 132.72 582.268 131.604 581.236 130.776C580.216 129.936 579.022 129.516 577.654 129.516C576.466 129.516 575.368 129.858 574.36 130.542C573.364 131.214 572.56 132.222 571.948 133.566C571.336 134.91 571.03 136.572 571.03 138.552C571.03 140.352 571.27 141.954 571.75 143.358C572.242 144.762 572.974 145.866 573.946 146.67C574.93 147.474 576.166 147.876 577.654 147.876C579.442 147.876 580.858 147.396 581.902 146.436C582.958 145.476 583.486 144.216 583.486 142.656H586.546C586.546 144.276 586.174 145.668 585.43 146.832C584.686 147.984 583.642 148.872 582.298 149.496C580.966 150.12 579.418 150.432 577.654 150.432ZM598.112 150.432C596.564 150.432 595.184 150.09 593.972 149.406C592.772 148.722 591.824 147.708 591.128 146.364C590.432 145.02 590.084 143.364 590.084 141.396C590.084 139.416 590.432 137.76 591.128 136.428C591.824 135.084 592.772 134.07 593.972 133.386C595.184 132.702 596.564 132.36 598.112 132.36C599.648 132.36 601.016 132.702 602.216 133.386C603.428 134.07 604.376 135.084 605.06 136.428C605.756 137.76 606.104 139.416 606.104 141.396C606.104 143.364 605.756 145.02 605.06 146.364C604.376 147.708 603.428 148.722 602.216 149.406C601.016 150.09 599.648 150.432 598.112 150.432ZM598.04 147.984C599.156 147.984 600.104 147.72 600.884 147.192C601.664 146.652 602.252 145.89 602.648 144.906C603.056 143.922 603.26 142.752 603.26 141.396C603.26 139.344 602.834 137.73 601.982 136.554C601.13 135.366 599.864 134.772 598.184 134.772C597.056 134.772 596.102 135.042 595.322 135.582C594.554 136.11 593.966 136.872 593.558 137.868C593.162 138.852 592.964 140.028 592.964 141.396C592.964 143.424 593.39 145.032 594.242 146.22C595.106 147.396 596.372 147.984 598.04 147.984ZM612.508 150V130.128C612.508 128.988 612.724 128.058 613.156 127.338C613.6 126.606 614.188 126.066 614.92 125.718C615.664 125.37 616.492 125.196 617.404 125.196C617.896 125.196 618.394 125.232 618.898 125.304C619.414 125.376 619.924 125.484 620.428 125.628L619.888 127.86C619.528 127.716 619.168 127.608 618.808 127.536C618.46 127.464 618.124 127.428 617.8 127.428C617.416 127.428 617.032 127.5 616.648 127.644C616.264 127.788 615.946 128.058 615.694 128.454C615.442 128.85 615.316 129.42 615.316 130.164V150H612.508ZM609.7 134.736V132.792H618.88V134.736H609.7ZM624.847 150V130.128C624.847 128.988 625.063 128.058 625.495 127.338C625.939 126.606 626.527 126.066 627.259 125.718C628.003 125.37 628.831 125.196 629.743 125.196C630.235 125.196 630.733 125.232 631.237 125.304C631.753 125.376 632.263 125.484 632.767 125.628L632.227 127.86C631.867 127.716 631.507 127.608 631.147 127.536C630.799 127.464 630.463 127.428 630.139 127.428C629.755 127.428 629.371 127.5 628.987 127.644C628.603 127.788 628.285 128.058 628.033 128.454C627.781 128.85 627.655 129.42 627.655 130.164V150H624.847ZM622.039 134.736V132.792H631.219V134.736H622.039ZM642.227 150.432C640.739 150.432 639.407 150.054 638.231 149.298C637.067 148.53 636.143 147.468 635.459 146.112C634.787 144.756 634.451 143.196 634.451 141.432C634.451 139.548 634.787 137.928 635.459 136.572C636.131 135.216 637.049 134.178 638.213 133.458C639.389 132.726 640.727 132.36 642.227 132.36C643.535 132.36 644.651 132.624 645.575 133.152C646.499 133.68 647.243 134.394 647.807 135.294C648.371 136.194 648.761 137.214 648.977 138.354C649.205 139.482 649.271 140.652 649.175 141.864H636.719V140.136H647.321L646.493 140.676C646.529 139.968 646.487 139.26 646.367 138.552C646.259 137.844 646.049 137.196 645.737 136.608C645.425 136.008 644.987 135.528 644.423 135.168C643.859 134.808 643.139 134.628 642.263 134.628C641.159 134.628 640.235 134.91 639.491 135.474C638.747 136.038 638.189 136.782 637.817 137.706C637.445 138.618 637.259 139.608 637.259 140.676V141.828C637.259 143.028 637.439 144.102 637.799 145.05C638.171 145.998 638.723 146.748 639.455 147.3C640.187 147.852 641.111 148.128 642.227 148.128C643.343 148.128 644.261 147.858 644.981 147.318C645.701 146.778 646.139 145.98 646.295 144.924H649.211C649.031 146.064 648.623 147.048 647.987 147.876C647.351 148.692 646.541 149.322 645.557 149.766C644.573 150.21 643.463 150.432 642.227 150.432ZM660.719 150.432C659.231 150.432 657.899 150.054 656.723 149.298C655.559 148.53 654.635 147.468 653.951 146.112C653.279 144.756 652.943 143.196 652.943 141.432C652.943 139.548 653.279 137.928 653.951 136.572C654.623 135.216 655.541 134.178 656.705 133.458C657.881 132.726 659.219 132.36 660.719 132.36C662.027 132.36 663.143 132.624 664.067 133.152C664.991 133.68 665.735 134.394 666.299 135.294C666.863 136.194 667.253 137.214 667.469 138.354C667.697 139.482 667.763 140.652 667.667 141.864H655.211V140.136H665.813L664.985 140.676C665.021 139.968 664.979 139.26 664.859 138.552C664.751 137.844 664.541 137.196 664.229 136.608C663.917 136.008 663.479 135.528 662.915 135.168C662.351 134.808 661.631 134.628 660.755 134.628C659.651 134.628 658.727 134.91 657.983 135.474C657.239 136.038 656.681 136.782 656.309 137.706C655.937 138.618 655.751 139.608 655.751 140.676V141.828C655.751 143.028 655.931 144.102 656.291 145.05C656.663 145.998 657.215 146.748 657.947 147.3C658.679 147.852 659.603 148.128 660.719 148.128C661.835 148.128 662.753 147.858 663.473 147.318C664.193 146.778 664.631 145.98 664.787 144.924H667.703C667.523 146.064 667.115 147.048 666.479 147.876C665.843 148.692 665.033 149.322 664.049 149.766C663.065 150.21 661.955 150.432 660.719 150.432ZM681.275 127.392H684.083V141.828C684.083 143.952 684.617 145.488 685.685 146.436C686.753 147.372 688.151 147.84 689.879 147.84C691.595 147.84 692.981 147.372 694.037 146.436C695.105 145.488 695.639 143.952 695.639 141.828V127.392H698.447V141.828C698.447 143.724 698.093 145.314 697.385 146.598C696.689 147.87 695.699 148.83 694.415 149.478C693.131 150.114 691.619 150.432 689.879 150.432C688.139 150.432 686.621 150.114 685.325 149.478C684.041 148.83 683.045 147.87 682.337 146.598C681.629 145.314 681.275 143.724 681.275 141.828V127.392ZM713.11 150.432C711.85 150.432 710.752 150.144 709.816 149.568C708.892 148.992 708.178 148.152 707.674 147.048C707.17 145.932 706.918 144.576 706.918 142.98H708.106C708.106 144.048 708.328 144.948 708.772 145.68C709.216 146.412 709.792 146.97 710.5 147.354C711.22 147.726 711.982 147.912 712.786 147.912C713.65 147.912 714.478 147.666 715.27 147.174C716.062 146.67 716.71 145.932 717.214 144.96C717.718 143.988 717.97 142.788 717.97 141.36C717.97 139.992 717.736 138.822 717.268 137.85C716.812 136.878 716.194 136.134 715.414 135.618C714.634 135.102 713.77 134.844 712.822 134.844C712.006 134.844 711.238 135.042 710.518 135.438C709.798 135.834 709.216 136.416 708.772 137.184C708.328 137.94 708.106 138.876 708.106 139.992H706.918C706.918 138.324 707.194 136.926 707.746 135.798C708.298 134.658 709.048 133.8 709.996 133.224C710.944 132.648 712.006 132.36 713.182 132.36C714.526 132.36 715.78 132.72 716.944 133.44C718.108 134.16 719.05 135.192 719.77 136.536C720.49 137.88 720.85 139.488 720.85 141.36C720.85 143.256 720.484 144.882 719.752 146.238C719.032 147.594 718.084 148.632 716.908 149.352C715.732 150.072 714.466 150.432 713.11 150.432ZM705.298 158.46V132.792H707.638L708.106 136.824V158.46H705.298ZM732.513 150.432C731.121 150.432 729.843 150.06 728.679 149.316C727.515 148.56 726.585 147.504 725.889 146.148C725.193 144.78 724.845 143.172 724.845 141.324C724.845 139.488 725.187 137.898 725.871 136.554C726.555 135.21 727.461 134.178 728.589 133.458C729.729 132.726 730.977 132.36 732.333 132.36C733.593 132.36 734.697 132.666 735.645 133.278C736.605 133.89 737.349 134.772 737.877 135.924C738.405 137.076 738.669 138.468 738.669 140.1H737.589C737.589 138.96 737.361 138 736.905 137.22C736.461 136.44 735.879 135.852 735.159 135.456C734.439 135.048 733.665 134.844 732.837 134.844C731.901 134.844 731.043 135.108 730.263 135.636C729.495 136.152 728.877 136.896 728.409 137.868C727.953 138.828 727.725 139.98 727.725 141.324C727.725 142.692 727.953 143.868 728.409 144.852C728.877 145.836 729.495 146.592 730.263 147.12C731.043 147.648 731.901 147.912 732.837 147.912C733.617 147.912 734.367 147.708 735.087 147.3C735.819 146.892 736.419 146.298 736.887 145.518C737.355 144.726 737.589 143.772 737.589 142.656H738.669C738.669 144.324 738.393 145.74 737.841 146.904C737.301 148.056 736.563 148.932 735.627 149.532C734.703 150.132 733.665 150.432 732.513 150.432ZM738.057 150L737.589 145.968V125.448H740.397V150H738.057ZM758.353 150L757.993 146.22V138.84C757.993 137.292 757.663 136.182 757.003 135.51C756.343 134.826 755.353 134.484 754.033 134.484C753.289 134.484 752.611 134.592 751.999 134.808C751.399 135.024 750.919 135.36 750.559 135.816C750.211 136.26 750.037 136.836 750.037 137.544H746.905C746.905 136.296 747.211 135.294 747.823 134.538C748.435 133.77 749.275 133.218 750.343 132.882C751.423 132.534 752.653 132.36 754.033 132.36C755.353 132.36 756.523 132.582 757.543 133.026C758.563 133.47 759.361 134.178 759.937 135.15C760.513 136.11 760.801 137.364 760.801 138.912V150H758.353ZM752.485 150.432C751.069 150.432 749.899 150.18 748.975 149.676C748.051 149.172 747.361 148.518 746.905 147.714C746.449 146.91 746.221 146.064 746.221 145.176C746.221 144.012 746.509 143.064 747.085 142.332C747.673 141.6 748.471 141.066 749.479 140.73C750.487 140.382 751.621 140.208 752.881 140.208C753.781 140.208 754.681 140.298 755.581 140.478C756.493 140.658 757.381 140.904 758.245 141.216V142.98C757.525 142.692 756.709 142.464 755.797 142.296C754.897 142.128 754.069 142.044 753.313 142.044C752.161 142.044 751.189 142.284 750.397 142.764C749.605 143.232 749.209 144.036 749.209 145.176C749.209 146.016 749.509 146.736 750.109 147.336C750.721 147.936 751.693 148.236 753.025 148.236C753.961 148.236 754.801 148.02 755.545 147.588C756.301 147.144 756.895 146.592 757.327 145.932C757.771 145.272 757.993 144.612 757.993 143.952H758.677C758.677 145.104 758.425 146.172 757.921 147.156C757.429 148.14 756.721 148.932 755.797 149.532C754.873 150.132 753.769 150.432 752.485 150.432ZM772.817 150.432C771.881 150.432 771.041 150.252 770.297 149.892C769.553 149.532 768.965 148.992 768.533 148.272C768.101 147.552 767.885 146.652 767.885 145.572V128.004H770.657V145.5C770.657 147.276 771.485 148.164 773.141 148.164C773.633 148.164 774.107 148.11 774.563 148.002C775.031 147.894 775.553 147.732 776.129 147.516L776.525 149.532C775.913 149.796 775.301 150.012 774.689 150.18C774.089 150.348 773.465 150.432 772.817 150.432ZM765.113 134.736V132.792H776.093V134.736H765.113ZM787.036 150.432C785.548 150.432 784.216 150.054 783.04 149.298C781.876 148.53 780.952 147.468 780.268 146.112C779.596 144.756 779.26 143.196 779.26 141.432C779.26 139.548 779.596 137.928 780.268 136.572C780.94 135.216 781.858 134.178 783.022 133.458C784.198 132.726 785.536 132.36 787.036 132.36C788.344 132.36 789.46 132.624 790.384 133.152C791.308 133.68 792.052 134.394 792.616 135.294C793.18 136.194 793.57 137.214 793.786 138.354C794.014 139.482 794.08 140.652 793.984 141.864H781.528V140.136H792.13L791.302 140.676C791.338 139.968 791.296 139.26 791.176 138.552C791.068 137.844 790.858 137.196 790.546 136.608C790.234 136.008 789.796 135.528 789.232 135.168C788.668 134.808 787.948 134.628 787.072 134.628C785.968 134.628 785.044 134.91 784.3 135.474C783.556 136.038 782.998 136.782 782.626 137.706C782.254 138.618 782.068 139.608 782.068 140.676V141.828C782.068 143.028 782.248 144.102 782.608 145.05C782.98 145.998 783.532 146.748 784.264 147.3C784.996 147.852 785.92 148.128 787.036 148.128C788.152 148.128 789.07 147.858 789.79 147.318C790.51 146.778 790.948 145.98 791.104 144.924H794.02C793.84 146.064 793.432 147.048 792.796 147.876C792.16 148.692 791.35 149.322 790.366 149.766C789.382 150.21 788.272 150.432 787.036 150.432ZM805.744 150.432C804.076 150.432 802.684 150.198 801.568 149.73C800.452 149.25 799.606 148.596 799.03 147.768C798.454 146.928 798.148 145.968 798.112 144.888H800.812C800.872 145.98 801.31 146.802 802.126 147.354C802.954 147.894 804.076 148.164 805.492 148.164C806.236 148.164 806.92 148.044 807.544 147.804C808.168 147.564 808.666 147.234 809.038 146.814C809.41 146.394 809.596 145.92 809.596 145.392C809.596 144.72 809.35 144.192 808.858 143.808C808.366 143.424 807.58 143.088 806.5 142.8L803.152 141.72C801.7 141.264 800.584 140.64 799.804 139.848C799.036 139.044 798.652 138.084 798.652 136.968C798.652 135.576 799.264 134.46 800.488 133.62C801.712 132.78 803.32 132.36 805.312 132.36C807.424 132.36 809.062 132.792 810.226 133.656C811.39 134.52 811.996 135.6 812.044 136.896H809.272C809.164 136.14 808.78 135.57 808.12 135.186C807.46 134.79 806.524 134.592 805.312 134.592C804.148 134.592 803.236 134.856 802.576 135.384C801.928 135.9 801.604 136.476 801.604 137.112C801.604 138.3 802.624 139.176 804.664 139.74L808.084 140.892C809.56 141.336 810.688 141.918 811.468 142.638C812.26 143.358 812.656 144.276 812.656 145.392C812.656 146.256 812.374 147.072 811.81 147.84C811.246 148.608 810.448 149.232 809.416 149.712C808.384 150.192 807.16 150.432 805.744 150.432Z" fill="white"/>
<path d="M835.093 219.144C834.589 219.144 834.127 219.054 833.707 218.874C833.287 218.69 832.949 218.42 832.693 218.064C832.437 217.708 832.305 217.268 832.297 216.744H833.209C833.209 217.096 833.295 217.386 833.467 217.614C833.639 217.838 833.867 218.006 834.151 218.118C834.435 218.226 834.745 218.28 835.081 218.28C835.445 218.28 835.761 218.222 836.029 218.106C836.297 217.99 836.503 217.838 836.647 217.65C836.795 217.458 836.869 217.248 836.869 217.02C836.869 216.7 836.771 216.442 836.575 216.246C836.379 216.046 836.089 215.884 835.705 215.76L834.373 215.292C833.749 215.068 833.277 214.812 832.957 214.524C832.637 214.236 832.477 213.832 832.477 213.312C832.477 212.728 832.701 212.252 833.149 211.884C833.601 211.516 834.241 211.332 835.069 211.332C835.837 211.332 836.437 211.51 836.869 211.866C837.301 212.218 837.549 212.692 837.613 213.288H836.689C836.629 212.94 836.465 212.67 836.197 212.478C835.933 212.282 835.557 212.184 835.069 212.184C834.573 212.184 834.187 212.294 833.911 212.514C833.635 212.734 833.497 213.012 833.497 213.348C833.497 213.624 833.583 213.844 833.755 214.008C833.931 214.168 834.205 214.312 834.577 214.44L836.137 214.98C836.677 215.16 837.103 215.412 837.415 215.736C837.731 216.06 837.889 216.48 837.889 216.996C837.889 217.396 837.781 217.758 837.565 218.082C837.353 218.406 837.039 218.664 836.623 218.856C836.207 219.048 835.697 219.144 835.093 219.144ZM841.767 211.464H842.703V216.276C842.703 216.984 842.881 217.496 843.237 217.812C843.593 218.124 844.059 218.28 844.635 218.28C845.207 218.28 845.669 218.124 846.021 217.812C846.377 217.496 846.555 216.984 846.555 216.276V211.464H847.491V216.276C847.491 216.908 847.373 217.438 847.137 217.866C846.905 218.29 846.575 218.61 846.147 218.826C845.719 219.038 845.215 219.144 844.635 219.144C844.055 219.144 843.549 219.038 843.117 218.826C842.689 218.61 842.357 218.29 842.121 217.866C841.885 217.438 841.767 216.908 841.767 216.276V211.464ZM851.775 219V211.464H854.595C855.147 211.464 855.605 211.556 855.969 211.74C856.333 211.92 856.605 212.16 856.785 212.46C856.965 212.756 857.055 213.08 857.055 213.432C857.055 213.864 856.935 214.24 856.695 214.56C856.459 214.876 856.103 215.092 855.627 215.208C855.935 215.256 856.205 215.366 856.437 215.538C856.673 215.706 856.857 215.914 856.989 216.162C857.121 216.406 857.187 216.668 857.187 216.948C857.187 217.204 857.143 217.454 857.055 217.698C856.971 217.942 856.829 218.162 856.629 218.358C856.429 218.554 856.163 218.71 855.831 218.826C855.499 218.942 855.087 219 854.595 219H851.775ZM852.711 218.184H854.583C855.155 218.184 855.565 218.064 855.813 217.824C856.065 217.584 856.191 217.276 856.191 216.9C856.191 216.52 856.055 216.216 855.783 215.988C855.511 215.756 855.111 215.64 854.583 215.64H852.711V218.184ZM852.711 212.268V214.836H854.559C855.027 214.836 855.399 214.722 855.675 214.494C855.955 214.262 856.095 213.936 856.095 213.516C856.095 213.124 855.959 212.818 855.687 212.598C855.419 212.378 855.047 212.268 854.571 212.268H852.711ZM863.64 219.144C863.136 219.144 862.674 219.054 862.254 218.874C861.834 218.69 861.496 218.42 861.24 218.064C860.984 217.708 860.852 217.268 860.844 216.744H861.756C861.756 217.096 861.842 217.386 862.014 217.614C862.186 217.838 862.414 218.006 862.698 218.118C862.982 218.226 863.292 218.28 863.628 218.28C863.992 218.28 864.308 218.222 864.576 218.106C864.844 217.99 865.05 217.838 865.194 217.65C865.342 217.458 865.416 217.248 865.416 217.02C865.416 216.7 865.318 216.442 865.122 216.246C864.926 216.046 864.636 215.884 864.252 215.76L862.92 215.292C862.296 215.068 861.824 214.812 861.504 214.524C861.184 214.236 861.024 213.832 861.024 213.312C861.024 212.728 861.248 212.252 861.696 211.884C862.148 211.516 862.788 211.332 863.616 211.332C864.384 211.332 864.984 211.51 865.416 211.866C865.848 212.218 866.096 212.692 866.16 213.288H865.236C865.176 212.94 865.012 212.67 864.744 212.478C864.48 212.282 864.104 212.184 863.616 212.184C863.12 212.184 862.734 212.294 862.458 212.514C862.182 212.734 862.044 213.012 862.044 213.348C862.044 213.624 862.13 213.844 862.302 214.008C862.478 214.168 862.752 214.312 863.124 214.44L864.684 214.98C865.224 215.16 865.65 215.412 865.962 215.736C866.278 216.06 866.436 216.48 866.436 216.996C866.436 217.396 866.328 217.758 866.112 218.082C865.9 218.406 865.586 218.664 865.17 218.856C864.754 219.048 864.244 219.144 863.64 219.144ZM873.098 219.144C872.434 219.144 871.862 218.978 871.382 218.646C870.902 218.31 870.532 217.846 870.272 217.254C870.012 216.658 869.882 215.968 869.882 215.184C869.882 214.348 870.022 213.644 870.302 213.072C870.586 212.5 870.97 212.068 871.454 211.776C871.942 211.48 872.49 211.332 873.098 211.332C873.902 211.332 874.548 211.534 875.036 211.938C875.528 212.338 875.866 212.86 876.05 213.504L875.042 213.708C874.886 213.24 874.636 212.868 874.292 212.592C873.952 212.312 873.554 212.172 873.098 212.172C872.702 212.172 872.336 212.286 872 212.514C871.668 212.738 871.4 213.074 871.196 213.522C870.992 213.97 870.89 214.524 870.89 215.184C870.89 215.784 870.97 216.318 871.13 216.786C871.294 217.254 871.538 217.622 871.862 217.89C872.19 218.158 872.602 218.292 873.098 218.292C873.694 218.292 874.166 218.132 874.514 217.812C874.866 217.492 875.042 217.072 875.042 216.552H876.062C876.062 217.092 875.938 217.556 875.69 217.944C875.442 218.328 875.094 218.624 874.646 218.832C874.202 219.04 873.686 219.144 873.098 219.144ZM879.841 219V211.464H882.469C883.329 211.464 883.979 211.67 884.419 212.082C884.863 212.49 885.085 213.028 885.085 213.696C885.085 214.356 884.863 214.892 884.419 215.304C883.979 215.712 883.329 215.916 882.469 215.916H880.777V219H879.841ZM884.065 219L881.905 215.58H882.925L885.277 219H884.065ZM880.777 215.256H882.397C882.961 215.256 883.389 215.118 883.681 214.842C883.977 214.562 884.125 214.2 884.125 213.756C884.125 213.3 883.983 212.938 883.699 212.67C883.419 212.402 883.009 212.268 882.469 212.268H880.777V215.256ZM889.189 219V211.464H890.125V219H889.189ZM894.552 219V211.464H897.372C897.924 211.464 898.382 211.556 898.746 211.74C899.11 211.92 899.382 212.16 899.562 212.46C899.742 212.756 899.832 213.08 899.832 213.432C899.832 213.864 899.712 214.24 899.472 214.56C899.236 214.876 898.88 215.092 898.404 215.208C898.712 215.256 898.982 215.366 899.214 215.538C899.45 215.706 899.634 215.914 899.766 216.162C899.898 216.406 899.964 216.668 899.964 216.948C899.964 217.204 899.92 217.454 899.832 217.698C899.748 217.942 899.606 218.162 899.406 218.358C899.206 218.554 898.94 218.71 898.608 218.826C898.276 218.942 897.864 219 897.372 219H894.552ZM895.488 218.184H897.36C897.932 218.184 898.342 218.064 898.59 217.824C898.842 217.584 898.968 217.276 898.968 216.9C898.968 216.52 898.832 216.216 898.56 215.988C898.288 215.756 897.888 215.64 897.36 215.64H895.488V218.184ZM895.488 212.268V214.836H897.336C897.804 214.836 898.176 214.722 898.452 214.494C898.732 214.262 898.872 213.936 898.872 213.516C898.872 213.124 898.736 212.818 898.464 212.598C898.196 212.378 897.824 212.268 897.348 212.268H895.488ZM903.993 219V211.464H908.637V212.268H904.929V214.8H908.421V215.604H904.929V218.184H908.637V219H903.993Z" fill="black"/>
<defs>
<filter id="filter0_d_1_307" x="800" y="184" width="141" height="66" filterUnits="userSpaceOnUse" color-interpolation-filters="sRGB">
<feFlood flood-opacity="0" result="BackgroundImageFix"/>
<feColorMatrix in="SourceAlpha" type="matrix" values="0 0 0 0 0 0 0 0 0 0 0 0 0 0 0 0 0 0 127 0" result="hardAlpha"/>
<feOffset dy="2"/>
<feGaussianBlur stdDeviation="3"/>
<feColorMatrix type="matrix" values="0 0 0 0 0.113725 0 0 0 0 0.121569 0 0 0 0 0.180392 0 0 0 0.1 0"/>
<feBlend mode="normal" in2="BackgroundImageFix" result="effect1_dropShadow_1_307"/>
<feBlend mode="normal" in="SourceGraphic" in2="effect1_dropShadow_1_307" result="shape"/>
</filter>
</defs>
</svg>
