<svg width="695" height="143" viewBox="0 0 695 143" fill="none" xmlns="http://www.w3.org/2000/svg">
<path d="M97.0026 63.4854C95.9466 63.4854 95.0586 63.1254 94.3386 62.4054C93.6186 61.6854 93.2586 60.7974 93.2586 59.7414V10.9973C93.2586 9.89335 93.6186 9.00535 94.3386 8.33335C95.0586 7.61335 95.9466 7.25335 97.0026 7.25335H110.035C114.163 7.25335 117.907 7.94935 121.267 9.34135C124.675 10.6853 127.627 12.6293 130.123 15.1734C132.619 17.6694 134.539 20.6213 135.883 24.0293C137.227 27.4373 137.899 31.2053 137.899 35.3333C137.899 39.4614 137.227 43.2534 135.883 46.7094C134.539 50.1174 132.619 53.0934 130.123 55.6374C127.627 58.1334 124.675 60.0774 121.267 61.4694C117.907 62.8134 114.163 63.4854 110.035 63.4854H97.0026ZM100.747 56.8614H110.035C114.067 56.8614 117.619 55.9494 120.691 54.1254C123.811 52.2534 126.259 49.7094 128.035 46.4934C129.811 43.2294 130.699 39.5093 130.699 35.3333C130.699 31.1093 129.811 27.3893 128.035 24.1734C126.259 20.9573 123.811 18.4373 120.691 16.6133C117.619 14.7894 114.067 13.8774 110.035 13.8774H100.747V56.8614ZM152.457 38.8614C152.457 35.9814 153.153 33.4134 154.545 31.1573C155.985 28.8534 157.905 27.0294 160.305 25.6853C162.705 24.3413 165.345 23.6693 168.225 23.6693C171.105 23.6693 173.241 24.1493 174.633 25.1093C176.073 26.0214 176.625 27.1254 176.289 28.4214C176.145 29.0934 175.857 29.6213 175.425 30.0053C175.041 30.3413 174.585 30.5573 174.057 30.6533C173.529 30.7493 172.953 30.7253 172.329 30.5814C169.257 29.9573 166.497 29.9093 164.049 30.4374C161.601 30.9654 159.657 31.9494 158.217 33.3894C156.825 34.8294 156.129 36.6534 156.129 38.8614H152.457ZM152.529 63.4854C151.377 63.4854 150.489 63.1974 149.865 62.6214C149.241 61.9974 148.929 61.0854 148.929 59.8854V27.7014C148.929 26.5494 149.241 25.6613 149.865 25.0373C150.489 24.4133 151.377 24.1013 152.529 24.1013C153.729 24.1013 154.617 24.4133 155.193 25.0373C155.817 25.6133 156.129 26.5014 156.129 27.7014V59.8854C156.129 61.0374 155.817 61.9254 155.193 62.5494C154.617 63.1734 153.729 63.4854 152.529 63.4854ZM198.918 63.7734C195.03 63.7734 191.598 62.9334 188.622 61.2534C185.646 59.5254 183.294 57.1734 181.566 54.1974C179.886 51.1734 179.046 47.7174 179.046 43.8294C179.046 39.8934 179.886 36.4374 181.566 33.4613C183.294 30.4374 185.646 28.0853 188.622 26.4053C191.598 24.6774 195.03 23.8134 198.918 23.8134C202.758 23.8134 206.166 24.6774 209.142 26.4053C212.118 28.0853 214.446 30.4374 216.126 33.4613C217.854 36.4374 218.718 39.8934 218.718 43.8294C218.718 47.7174 217.878 51.1734 216.198 54.1974C214.518 57.1734 212.19 59.5254 209.214 61.2534C206.238 62.9334 202.806 63.7734 198.918 63.7734ZM198.918 57.2934C201.414 57.2934 203.622 56.7174 205.542 55.5654C207.462 54.4134 208.95 52.8294 210.006 50.8134C211.11 48.7974 211.662 46.4694 211.662 43.8294C211.662 41.1894 211.11 38.8614 210.006 36.8454C208.95 34.7814 207.462 33.1734 205.542 32.0214C203.622 30.8694 201.414 30.2933 198.918 30.2933C196.422 30.2933 194.214 30.8694 192.294 32.0214C190.374 33.1734 188.862 34.7814 187.758 36.8454C186.654 38.8614 186.102 41.1894 186.102 43.8294C186.102 46.4694 186.654 48.7974 187.758 50.8134C188.862 52.8294 190.374 54.4134 192.294 55.5654C194.214 56.7174 196.422 57.2934 198.918 57.2934ZM233.32 80.3334C232.264 80.3334 231.376 79.9734 230.656 79.2534C229.984 78.5814 229.648 77.7174 229.648 76.6614V43.8294C229.696 40.0374 230.584 36.6293 232.312 33.6054C234.04 30.5814 236.392 28.2054 239.368 26.4774C242.344 24.7014 245.704 23.8134 249.448 23.8134C253.24 23.8134 256.624 24.7014 259.6 26.4774C262.576 28.2054 264.928 30.5814 266.656 33.6054C268.432 36.6293 269.32 40.0374 269.32 43.8294C269.32 47.6214 268.504 51.0294 266.872 54.0534C265.288 57.0294 263.104 59.4054 260.32 61.1814C257.536 62.9094 254.392 63.7734 250.888 63.7734C248.056 63.7734 245.44 63.1974 243.04 62.0454C240.688 60.8454 238.672 59.2374 236.992 57.2214V76.6614C236.992 77.7174 236.656 78.5814 235.984 79.2534C235.312 79.9734 234.424 80.3334 233.32 80.3334ZM249.448 57.2934C251.896 57.2934 254.08 56.7174 256 55.5654C257.92 54.3654 259.432 52.7574 260.536 50.7414C261.688 48.6774 262.264 46.3734 262.264 43.8294C262.264 41.2374 261.688 38.9334 260.536 36.9174C259.432 34.8533 257.92 33.2453 256 32.0934C254.08 30.8933 251.896 30.2933 249.448 30.2933C247.048 30.2933 244.864 30.8933 242.896 32.0934C240.976 33.2453 239.464 34.8533 238.36 36.9174C237.256 38.9334 236.704 41.2374 236.704 43.8294C236.704 46.3734 237.256 48.6774 238.36 50.7414C239.464 52.7574 240.976 54.3654 242.896 55.5654C244.864 56.7174 247.048 57.2934 249.448 57.2934ZM317.927 63.8454C314.615 63.8454 311.639 63.1494 308.999 61.7574C306.407 60.3174 304.343 58.2294 302.807 55.4934C301.319 52.7574 300.575 49.3974 300.575 45.4134V27.7014C300.575 26.6453 300.911 25.7813 301.583 25.1093C302.303 24.3893 303.191 24.0293 304.247 24.0293C305.303 24.0293 306.167 24.3893 306.839 25.1093C307.559 25.7813 307.919 26.6453 307.919 27.7014V45.4134C307.919 48.1014 308.423 50.3334 309.431 52.1094C310.439 53.8374 311.807 55.1334 313.535 55.9974C315.263 56.8134 317.207 57.2214 319.367 57.2214C321.431 57.2214 323.255 56.8134 324.839 55.9974C326.471 55.1814 327.767 54.0774 328.727 52.6854C329.687 51.2934 330.167 49.7334 330.167 48.0054H334.703C334.703 50.9814 333.959 53.6694 332.471 56.0694C331.031 58.4694 329.039 60.3654 326.495 61.7574C323.999 63.1494 321.143 63.8454 317.927 63.8454ZM333.839 63.4854C332.783 63.4854 331.895 63.1494 331.175 62.4774C330.503 61.7574 330.167 60.8694 330.167 59.8134V27.7014C330.167 26.5973 330.503 25.7093 331.175 25.0373C331.895 24.3653 332.783 24.0293 333.839 24.0293C334.943 24.0293 335.831 24.3653 336.503 25.0373C337.175 25.7093 337.511 26.5973 337.511 27.7014V59.8134C337.511 60.8694 337.175 61.7574 336.503 62.4774C335.831 63.1494 334.943 63.4854 333.839 63.4854ZM364.773 63.7734C361.413 63.7734 358.293 63.2694 355.413 62.2614C352.581 61.2054 350.373 59.8854 348.789 58.3014C348.069 57.5334 347.757 56.6694 347.853 55.7094C347.997 54.7014 348.477 53.8854 349.293 53.2614C350.253 52.4934 351.189 52.1814 352.101 52.3254C353.061 52.4214 353.877 52.8294 354.549 53.5494C355.365 54.4614 356.661 55.3254 358.437 56.1414C360.261 56.9094 362.277 57.2934 364.485 57.2934C367.269 57.2934 369.381 56.8374 370.821 55.9254C372.309 55.0134 373.077 53.8374 373.125 52.3974C373.173 50.9574 372.477 49.7094 371.037 48.6534C369.645 47.5974 367.077 46.7334 363.333 46.0614C358.485 45.1014 354.957 43.6614 352.749 41.7414C350.589 39.8214 349.509 37.4694 349.509 34.6854C349.509 32.2373 350.229 30.2213 351.669 28.6373C353.109 27.0054 354.957 25.8054 357.213 25.0373C359.469 24.2214 361.821 23.8134 364.269 23.8134C367.437 23.8134 370.245 24.3174 372.693 25.3253C375.141 26.3334 377.085 27.7254 378.525 29.5013C379.197 30.2693 379.509 31.0853 379.461 31.9493C379.413 32.7653 379.005 33.4613 378.237 34.0374C377.469 34.5653 376.557 34.7333 375.501 34.5414C374.445 34.3494 373.557 33.9174 372.837 33.2454C371.637 32.0933 370.341 31.3013 368.949 30.8694C367.557 30.4374 365.949 30.2214 364.125 30.2214C362.013 30.2214 360.213 30.5814 358.725 31.3013C357.285 32.0214 356.565 33.0774 356.565 34.4693C356.565 35.3333 356.781 36.1254 357.213 36.8454C357.693 37.5174 358.605 38.1414 359.949 38.7174C361.293 39.2454 363.261 39.7734 365.853 40.3013C369.453 41.0214 372.285 41.9334 374.349 43.0374C376.461 44.1414 377.973 45.4374 378.885 46.9254C379.797 48.3654 380.253 50.0454 380.253 51.9654C380.253 54.1734 379.653 56.1654 378.453 57.9414C377.301 59.7174 375.573 61.1334 373.269 62.1894C371.013 63.2454 368.181 63.7734 364.773 63.7734ZM427.048 63.7734C423.544 63.7734 420.4 62.9094 417.616 61.1814C414.832 59.4054 412.624 57.0294 410.992 54.0534C409.408 51.0294 408.616 47.6214 408.616 43.8294C408.616 40.0374 409.48 36.6293 411.208 33.6054C412.984 30.5814 415.36 28.2054 418.336 26.4774C421.36 24.7014 424.744 23.8134 428.488 23.8134C432.232 23.8134 435.592 24.7014 438.568 26.4774C441.544 28.2054 443.896 30.5814 445.624 33.6054C447.4 36.6293 448.288 40.0374 448.288 43.8294H445.48C445.48 47.6214 444.664 51.0294 443.032 54.0534C441.448 57.0294 439.264 59.4054 436.48 61.1814C433.696 62.9094 430.552 63.7734 427.048 63.7734ZM428.488 57.2934C430.936 57.2934 433.12 56.7174 435.04 55.5654C436.96 54.3654 438.472 52.7574 439.576 50.7414C440.68 48.6774 441.232 46.3734 441.232 43.8294C441.232 41.2374 440.68 38.9334 439.576 36.9174C438.472 34.8533 436.96 33.2453 435.04 32.0934C433.12 30.8933 430.936 30.2933 428.488 30.2933C426.088 30.2933 423.904 30.8933 421.936 32.0934C420.016 33.2453 418.48 34.8533 417.328 36.9174C416.224 38.9334 415.672 41.2374 415.672 43.8294C415.672 46.3734 416.224 48.6774 417.328 50.7414C418.48 52.7574 420.016 54.3654 421.936 55.5654C423.904 56.7174 426.088 57.2934 428.488 57.2934ZM444.616 63.5574C443.56 63.5574 442.672 63.2214 441.952 62.5494C441.28 61.8294 440.944 60.9414 440.944 59.8854V48.8694L442.312 41.2374L448.288 43.8294V59.8854C448.288 60.9414 447.928 61.8294 447.208 62.5494C446.536 63.2214 445.672 63.5574 444.616 63.5574ZM489.672 63.4854C487.56 63.4854 485.688 62.9094 484.056 61.7574C482.424 60.6054 481.152 59.0454 480.24 57.0774C479.328 55.0614 478.872 52.7574 478.872 50.1654V10.8534C478.872 9.79735 479.208 8.93335 479.88 8.26135C480.552 7.58935 481.416 7.25335 482.472 7.25335C483.528 7.25335 484.392 7.58935 485.064 8.26135C485.736 8.93335 486.072 9.79735 486.072 10.8534V50.1654C486.072 51.9414 486.408 53.4054 487.08 54.5574C487.752 55.7094 488.616 56.2854 489.672 56.2854H491.472C492.432 56.2854 493.2 56.6214 493.776 57.2934C494.4 57.9654 494.712 58.8294 494.712 59.8854C494.712 60.9414 494.256 61.8054 493.344 62.4774C492.432 63.1494 491.256 63.4854 489.816 63.4854H489.672ZM506.29 63.4854C505.234 63.4854 504.346 63.1494 503.626 62.4774C502.954 61.7574 502.618 60.8694 502.618 59.8134V27.7734C502.618 26.6693 502.954 25.7813 503.626 25.1093C504.346 24.4373 505.234 24.1013 506.29 24.1013C507.394 24.1013 508.282 24.4373 508.954 25.1093C509.626 25.7813 509.962 26.6693 509.962 27.7734V59.8134C509.962 60.8694 509.626 61.7574 508.954 62.4774C508.282 63.1494 507.394 63.4854 506.29 63.4854ZM506.29 17.6933C504.994 17.6933 503.866 17.2373 502.906 16.3253C501.994 15.3654 501.538 14.2374 501.538 12.9413C501.538 11.6453 501.994 10.5413 502.906 9.62935C503.866 8.66935 504.994 8.18935 506.29 8.18935C507.586 8.18935 508.69 8.66935 509.602 9.62935C510.562 10.5413 511.042 11.6453 511.042 12.9413C511.042 14.2374 510.562 15.3654 509.602 16.3253C508.69 17.2373 507.586 17.6933 506.29 17.6933ZM556.889 63.5574C555.833 63.5574 554.945 63.2214 554.225 62.5494C553.553 61.8294 553.217 60.9414 553.217 59.8854V42.1734C553.217 39.4374 552.713 37.2054 551.705 35.4773C550.697 33.7494 549.329 32.4774 547.601 31.6613C545.921 30.7974 543.977 30.3654 541.769 30.3654C539.753 30.3654 537.929 30.7734 536.297 31.5894C534.665 32.4053 533.369 33.5093 532.409 34.9014C531.449 36.2454 530.969 37.8054 530.969 39.5814H526.433C526.433 36.5574 527.153 33.8694 528.593 31.5173C530.081 29.1173 532.097 27.2214 534.641 25.8294C537.185 24.4373 540.041 23.7413 543.209 23.7413C546.521 23.7413 549.473 24.4613 552.065 25.9014C554.705 27.2933 556.769 29.3573 558.257 32.0934C559.793 34.8294 560.561 38.1894 560.561 42.1734V59.8854C560.561 60.9414 560.201 61.8294 559.481 62.5494C558.809 63.2214 557.945 63.5574 556.889 63.5574ZM527.297 63.5574C526.241 63.5574 525.353 63.2214 524.633 62.5494C523.961 61.8294 523.625 60.9414 523.625 59.8854V27.7734C523.625 26.6693 523.961 25.7813 524.633 25.1093C525.353 24.4373 526.241 24.1013 527.297 24.1013C528.401 24.1013 529.289 24.4373 529.961 25.1093C530.633 25.7813 530.969 26.6693 530.969 27.7734V59.8854C530.969 60.9414 530.633 61.8294 529.961 62.5494C529.289 63.2214 528.401 63.5574 527.297 63.5574ZM591.207 63.7734C587.223 63.7734 583.671 62.9334 580.551 61.2534C577.479 59.5254 575.055 57.1734 573.279 54.1974C571.551 51.1734 570.687 47.7174 570.687 43.8294C570.687 39.8934 571.503 36.4374 573.135 33.4613C574.815 30.4374 577.119 28.0853 580.047 26.4053C582.975 24.6774 586.335 23.8134 590.127 23.8134C593.871 23.8134 597.087 24.6534 599.775 26.3333C602.463 27.9653 604.503 30.2453 605.895 33.1733C607.335 36.0533 608.055 39.3893 608.055 43.1814C608.055 44.0934 607.743 44.8614 607.119 45.4854C606.495 46.0614 605.703 46.3494 604.743 46.3494H575.727V40.5894H604.527L601.575 42.6054C601.527 40.2054 601.047 38.0694 600.135 36.1974C599.223 34.2773 597.927 32.7653 596.247 31.6613C594.567 30.5573 592.527 30.0053 590.127 30.0053C587.391 30.0053 585.039 30.6053 583.071 31.8053C581.151 33.0053 579.687 34.6614 578.679 36.7734C577.671 38.8374 577.167 41.1894 577.167 43.8294C577.167 46.4694 577.767 48.8214 578.967 50.8854C580.167 52.9494 581.823 54.5814 583.935 55.7814C586.047 56.9814 588.471 57.5814 591.207 57.5814C592.695 57.5814 594.207 57.3174 595.743 56.7894C597.327 56.2134 598.599 55.5654 599.559 54.8454C600.279 54.3174 601.047 54.0534 601.863 54.0534C602.727 54.0054 603.471 54.2454 604.095 54.7734C604.911 55.4934 605.343 56.2854 605.391 57.1494C605.439 58.0134 605.055 58.7574 604.239 59.3814C602.607 60.6774 600.567 61.7334 598.119 62.5494C595.719 63.3654 593.415 63.7734 591.207 63.7734Z" fill="#3B668D"/>
<path d="M134.319 135.485C133.959 135.485 133.649 135.365 133.389 135.125C133.149 134.865 133.029 134.555 133.029 134.195V113.345C133.029 112.985 133.149 112.685 133.389 112.445C133.649 112.185 133.959 112.055 134.319 112.055C134.679 112.055 134.979 112.185 135.219 112.445C135.479 112.685 135.609 112.985 135.609 113.345V132.965H147.069C147.429 132.965 147.729 133.085 147.969 133.325C148.229 133.565 148.359 133.865 148.359 134.225C148.359 134.585 148.229 134.885 147.969 135.125C147.729 135.365 147.429 135.485 147.069 135.485H134.319ZM159.271 135.635C157.651 135.635 156.211 135.275 154.951 134.555C153.711 133.835 152.731 132.845 152.011 131.585C151.291 130.325 150.931 128.895 150.931 127.295C150.931 125.675 151.291 124.235 152.011 122.975C152.731 121.715 153.711 120.725 154.951 120.005C156.211 119.285 157.651 118.925 159.271 118.925C160.871 118.925 162.291 119.285 163.531 120.005C164.771 120.725 165.751 121.715 166.471 122.975C167.191 124.235 167.561 125.675 167.581 127.295C167.581 128.895 167.221 130.325 166.501 131.585C165.781 132.845 164.791 133.835 163.531 134.555C162.291 135.275 160.871 135.635 159.271 135.635ZM159.271 133.325C160.391 133.325 161.391 133.065 162.271 132.545C163.151 132.025 163.831 131.315 164.311 130.415C164.811 129.495 165.061 128.455 165.061 127.295C165.061 126.135 164.811 125.095 164.311 124.175C163.831 123.255 163.151 122.535 162.271 122.015C161.391 121.495 160.391 121.235 159.271 121.235C158.151 121.235 157.151 121.495 156.271 122.015C155.391 122.535 154.691 123.255 154.171 124.175C153.671 125.095 153.421 126.135 153.421 127.295C153.421 128.455 153.671 129.495 154.171 130.415C154.691 131.315 155.391 132.025 156.271 132.545C157.151 133.065 158.151 133.325 159.271 133.325ZM173.215 125.315C173.255 124.095 173.565 123.005 174.145 122.045C174.745 121.065 175.525 120.295 176.485 119.735C177.445 119.175 178.515 118.895 179.695 118.895C180.715 118.895 181.485 119.045 182.005 119.345C182.545 119.645 182.745 120.055 182.605 120.575C182.545 120.875 182.415 121.085 182.215 121.205C182.035 121.305 181.815 121.355 181.555 121.355C181.315 121.355 181.035 121.345 180.715 121.325C179.555 121.165 178.515 121.235 177.595 121.535C176.675 121.815 175.945 122.285 175.405 122.945C174.865 123.605 174.595 124.395 174.595 125.315H173.215ZM173.335 135.485C172.935 135.485 172.625 135.375 172.405 135.155C172.185 134.935 172.075 134.625 172.075 134.225V120.335C172.075 119.935 172.185 119.625 172.405 119.405C172.625 119.185 172.935 119.075 173.335 119.075C173.735 119.075 174.045 119.185 174.265 119.405C174.485 119.625 174.595 119.935 174.595 120.335V134.225C174.595 134.625 174.485 134.935 174.265 135.155C174.045 135.375 173.735 135.485 173.335 135.485ZM192.407 135.635C190.767 135.635 189.317 135.285 188.057 134.585C186.797 133.865 185.807 132.875 185.087 131.615C184.367 130.355 184.007 128.915 184.007 127.295C184.007 125.655 184.347 124.215 185.027 122.975C185.707 121.715 186.637 120.725 187.817 120.005C189.017 119.285 190.397 118.925 191.957 118.925C193.497 118.925 194.827 119.275 195.947 119.975C197.067 120.655 197.927 121.605 198.527 122.825C199.147 124.045 199.457 125.435 199.457 126.995C199.457 127.335 199.347 127.615 199.127 127.835C198.907 128.035 198.627 128.135 198.287 128.135H185.747V126.065H198.407L197.147 126.965C197.147 125.865 196.937 124.875 196.517 123.995C196.097 123.115 195.497 122.425 194.717 121.925C193.957 121.425 193.037 121.175 191.957 121.175C190.817 121.175 189.827 121.445 188.987 121.985C188.147 122.505 187.497 123.225 187.037 124.145C186.577 125.065 186.347 126.115 186.347 127.295C186.347 128.475 186.607 129.525 187.127 130.445C187.647 131.345 188.357 132.065 189.257 132.605C190.177 133.125 191.227 133.385 192.407 133.385C193.087 133.385 193.777 133.265 194.477 133.025C195.197 132.785 195.767 132.485 196.187 132.125C196.427 131.925 196.697 131.825 196.997 131.825C197.317 131.805 197.587 131.885 197.807 132.065C198.087 132.325 198.227 132.615 198.227 132.935C198.247 133.235 198.127 133.495 197.867 133.715C197.187 134.275 196.337 134.735 195.317 135.095C194.317 135.455 193.347 135.635 192.407 135.635ZM225.324 135.485C224.944 135.485 224.634 135.375 224.394 135.155C224.154 134.915 224.034 134.605 224.034 134.225V125.615C224.034 124.235 223.684 123.175 222.984 122.435C222.284 121.675 221.384 121.295 220.284 121.295C219.104 121.295 218.134 121.695 217.374 122.495C216.634 123.275 216.274 124.315 216.294 125.615H214.074C214.094 124.275 214.384 123.105 214.944 122.105C215.504 121.085 216.274 120.295 217.254 119.735C218.254 119.175 219.384 118.895 220.644 118.895C221.804 118.895 222.834 119.165 223.734 119.705C224.634 120.245 225.334 121.025 225.834 122.045C226.334 123.045 226.584 124.235 226.584 125.615V134.225C226.584 134.605 226.464 134.915 226.224 135.155C226.004 135.375 225.704 135.485 225.324 135.485ZM204.654 135.485C204.274 135.485 203.964 135.375 203.724 135.155C203.484 134.915 203.364 134.605 203.364 134.225V120.365C203.364 119.985 203.484 119.675 203.724 119.435C203.964 119.195 204.274 119.075 204.654 119.075C205.034 119.075 205.334 119.195 205.554 119.435C205.794 119.675 205.914 119.985 205.914 120.365V134.225C205.914 134.605 205.794 134.915 205.554 135.155C205.334 135.375 205.034 135.485 204.654 135.485ZM215.004 135.485C214.644 135.485 214.334 135.375 214.074 135.155C213.834 134.915 213.714 134.605 213.714 134.225V125.615C213.714 124.235 213.364 123.175 212.664 122.435C211.964 121.675 211.064 121.295 209.964 121.295C208.784 121.295 207.814 121.685 207.054 122.465C206.294 123.245 205.914 124.255 205.914 125.495H204.204C204.224 124.195 204.494 123.055 205.014 122.075C205.554 121.075 206.284 120.295 207.204 119.735C208.124 119.175 209.164 118.895 210.324 118.895C211.484 118.895 212.514 119.165 213.414 119.705C214.314 120.245 215.014 121.025 215.514 122.045C216.034 123.045 216.294 124.235 216.294 125.615V134.225C216.294 134.605 216.174 134.915 215.934 135.155C215.694 135.375 215.384 135.485 215.004 135.485ZM242.193 135.485C241.813 135.485 241.503 135.365 241.263 135.125C241.023 134.885 240.903 134.575 240.903 134.195V120.365C240.903 119.965 241.023 119.655 241.263 119.435C241.503 119.195 241.813 119.075 242.193 119.075C242.573 119.075 242.873 119.195 243.093 119.435C243.333 119.655 243.453 119.965 243.453 120.365V134.195C243.453 134.575 243.333 134.885 243.093 135.125C242.873 135.365 242.573 135.485 242.193 135.485ZM242.163 116.105C241.683 116.105 241.273 115.935 240.933 115.595C240.593 115.255 240.423 114.835 240.423 114.335C240.423 113.835 240.593 113.425 240.933 113.105C241.293 112.765 241.713 112.595 242.193 112.595C242.653 112.595 243.053 112.765 243.393 113.105C243.753 113.425 243.933 113.835 243.933 114.335C243.933 114.835 243.753 115.255 243.393 115.595C243.053 115.935 242.643 116.105 242.163 116.105ZM250.562 142.505C250.182 142.505 249.872 142.385 249.632 142.145C249.392 141.905 249.272 141.595 249.272 141.215V127.205C249.292 125.645 249.662 124.245 250.382 123.005C251.122 121.745 252.112 120.755 253.352 120.035C254.592 119.295 255.992 118.925 257.552 118.925C259.152 118.925 260.572 119.295 261.812 120.035C263.072 120.755 264.062 121.745 264.782 123.005C265.522 124.265 265.892 125.695 265.892 127.295C265.892 128.875 265.542 130.295 264.842 131.555C264.162 132.815 263.222 133.815 262.022 134.555C260.822 135.275 259.462 135.635 257.942 135.635C256.662 135.635 255.492 135.365 254.432 134.825C253.372 134.265 252.502 133.535 251.822 132.635V141.215C251.822 141.595 251.702 141.905 251.462 142.145C251.242 142.385 250.942 142.505 250.562 142.505ZM257.552 133.325C258.672 133.325 259.672 133.065 260.552 132.545C261.432 132.025 262.122 131.305 262.622 130.385C263.142 129.465 263.402 128.435 263.402 127.295C263.402 126.135 263.142 125.105 262.622 124.205C262.122 123.285 261.432 122.565 260.552 122.045C259.672 121.505 258.672 121.235 257.552 121.235C256.472 121.235 255.482 121.505 254.582 122.045C253.702 122.565 253.012 123.285 252.512 124.205C252.012 125.105 251.762 126.135 251.762 127.295C251.762 128.435 252.012 129.465 252.512 130.385C253.012 131.305 253.702 132.025 254.582 132.545C255.482 133.065 256.472 133.325 257.552 133.325ZM276.273 135.635C275.013 135.635 273.793 135.435 272.613 135.035C271.453 134.615 270.523 134.025 269.823 133.265C269.583 133.005 269.483 132.705 269.523 132.365C269.563 132.025 269.723 131.735 270.003 131.495C270.323 131.255 270.643 131.165 270.963 131.225C271.303 131.265 271.593 131.405 271.833 131.645C272.253 132.145 272.853 132.555 273.633 132.875C274.413 133.175 275.273 133.325 276.213 133.325C277.593 133.325 278.603 133.095 279.243 132.635C279.883 132.155 280.213 131.575 280.233 130.895C280.253 130.215 279.933 129.645 279.273 129.185C278.633 128.725 277.533 128.365 275.973 128.105C273.953 127.765 272.473 127.195 271.533 126.395C270.613 125.595 270.153 124.635 270.153 123.515C270.153 122.495 270.433 121.645 270.993 120.965C271.553 120.285 272.283 119.775 273.183 119.435C274.103 119.095 275.093 118.925 276.153 118.925C277.493 118.925 278.653 119.155 279.633 119.615C280.613 120.055 281.403 120.655 282.003 121.415C282.243 121.695 282.343 121.995 282.303 122.315C282.263 122.615 282.103 122.865 281.823 123.065C281.543 123.225 281.223 123.275 280.863 123.215C280.523 123.155 280.233 122.995 279.993 122.735C279.493 122.195 278.923 121.805 278.283 121.565C277.643 121.325 276.913 121.205 276.093 121.205C275.073 121.205 274.233 121.405 273.573 121.805C272.933 122.205 272.613 122.725 272.613 123.365C272.613 123.805 272.723 124.185 272.943 124.505C273.183 124.825 273.603 125.115 274.203 125.375C274.803 125.615 275.643 125.835 276.723 126.035C278.223 126.295 279.403 126.655 280.263 127.115C281.143 127.575 281.773 128.125 282.153 128.765C282.533 129.385 282.723 130.075 282.723 130.835C282.723 131.755 282.453 132.575 281.913 133.295C281.393 134.015 280.643 134.585 279.663 135.005C278.703 135.425 277.573 135.635 276.273 135.635ZM293.705 135.665C292.305 135.665 291.045 135.375 289.925 134.795C288.825 134.195 287.955 133.325 287.315 132.185C286.675 131.045 286.355 129.645 286.355 127.985V120.335C286.355 119.975 286.475 119.675 286.715 119.435C286.955 119.195 287.255 119.075 287.615 119.075C287.995 119.075 288.305 119.195 288.545 119.435C288.785 119.675 288.905 119.975 288.905 120.335V127.985C288.905 129.185 289.125 130.175 289.565 130.955C290.025 131.735 290.645 132.315 291.425 132.695C292.205 133.075 293.085 133.265 294.065 133.265C295.005 133.265 295.845 133.085 296.585 132.725C297.345 132.365 297.945 131.865 298.385 131.225C298.825 130.585 299.045 129.865 299.045 129.065H300.785C300.745 130.325 300.415 131.455 299.795 132.455C299.175 133.435 298.335 134.215 297.275 134.795C296.215 135.375 295.025 135.665 293.705 135.665ZM300.335 135.485C299.955 135.485 299.645 135.365 299.405 135.125C299.165 134.885 299.045 134.575 299.045 134.195V120.335C299.045 119.955 299.165 119.655 299.405 119.435C299.645 119.195 299.955 119.075 300.335 119.075C300.715 119.075 301.025 119.195 301.265 119.435C301.505 119.655 301.625 119.955 301.625 120.335V134.195C301.625 134.575 301.505 134.885 301.265 135.125C301.025 135.365 300.715 135.485 300.335 135.485ZM328.976 135.485C328.596 135.485 328.286 135.375 328.046 135.155C327.806 134.915 327.686 134.605 327.686 134.225V125.615C327.686 124.235 327.336 123.175 326.636 122.435C325.936 121.675 325.036 121.295 323.936 121.295C322.756 121.295 321.786 121.695 321.026 122.495C320.286 123.275 319.926 124.315 319.946 125.615H317.726C317.746 124.275 318.036 123.105 318.596 122.105C319.156 121.085 319.926 120.295 320.906 119.735C321.906 119.175 323.036 118.895 324.296 118.895C325.456 118.895 326.486 119.165 327.386 119.705C328.286 120.245 328.986 121.025 329.486 122.045C329.986 123.045 330.236 124.235 330.236 125.615V134.225C330.236 134.605 330.116 134.915 329.876 135.155C329.656 135.375 329.356 135.485 328.976 135.485ZM308.306 135.485C307.926 135.485 307.616 135.375 307.376 135.155C307.136 134.915 307.016 134.605 307.016 134.225V120.365C307.016 119.985 307.136 119.675 307.376 119.435C307.616 119.195 307.926 119.075 308.306 119.075C308.686 119.075 308.986 119.195 309.206 119.435C309.446 119.675 309.566 119.985 309.566 120.365V134.225C309.566 134.605 309.446 134.915 309.206 135.155C308.986 135.375 308.686 135.485 308.306 135.485ZM318.656 135.485C318.296 135.485 317.986 135.375 317.726 135.155C317.486 134.915 317.366 134.605 317.366 134.225V125.615C317.366 124.235 317.016 123.175 316.316 122.435C315.616 121.675 314.716 121.295 313.616 121.295C312.436 121.295 311.466 121.685 310.706 122.465C309.946 123.245 309.566 124.255 309.566 125.495H307.856C307.876 124.195 308.146 123.055 308.666 122.075C309.206 121.075 309.936 120.295 310.856 119.735C311.776 119.175 312.816 118.895 313.976 118.895C315.136 118.895 316.166 119.165 317.066 119.705C317.966 120.245 318.666 121.025 319.166 122.045C319.686 123.045 319.946 124.235 319.946 125.615V134.225C319.946 134.605 319.826 134.915 319.586 135.155C319.346 135.375 319.036 135.485 318.656 135.485ZM351.605 135.635C350.025 135.635 348.605 135.275 347.345 134.555C346.085 133.815 345.085 132.815 344.345 131.555C343.625 130.295 343.265 128.865 343.265 127.265C343.265 125.685 343.615 124.265 344.315 123.005C345.015 121.745 345.965 120.755 347.165 120.035C348.365 119.295 349.725 118.925 351.245 118.925C352.525 118.925 353.685 119.205 354.725 119.765C355.785 120.305 356.655 121.025 357.335 121.925V113.345C357.335 112.945 357.455 112.635 357.695 112.415C357.935 112.175 358.245 112.055 358.625 112.055C359.005 112.055 359.315 112.175 359.555 112.415C359.795 112.635 359.915 112.945 359.915 113.345V127.355C359.875 128.915 359.485 130.325 358.745 131.585C358.025 132.825 357.045 133.815 355.805 134.555C354.565 135.275 353.165 135.635 351.605 135.635ZM351.605 133.325C352.705 133.325 353.695 133.065 354.575 132.545C355.455 132.005 356.145 131.285 356.645 130.385C357.145 129.465 357.395 128.425 357.395 127.265C357.395 126.125 357.145 125.095 356.645 124.175C356.145 123.255 355.455 122.535 354.575 122.015C353.695 121.495 352.705 121.235 351.605 121.235C350.505 121.235 349.515 121.495 348.635 122.015C347.755 122.535 347.055 123.255 346.535 124.175C346.015 125.095 345.755 126.125 345.755 127.265C345.755 128.425 346.015 129.465 346.535 130.385C347.055 131.285 347.755 132.005 348.635 132.545C349.515 133.065 350.505 133.325 351.605 133.325ZM372.787 135.635C371.167 135.635 369.727 135.275 368.467 134.555C367.227 133.835 366.247 132.845 365.527 131.585C364.807 130.325 364.447 128.895 364.447 127.295C364.447 125.675 364.807 124.235 365.527 122.975C366.247 121.715 367.227 120.725 368.467 120.005C369.727 119.285 371.167 118.925 372.787 118.925C374.387 118.925 375.807 119.285 377.047 120.005C378.287 120.725 379.267 121.715 379.987 122.975C380.707 124.235 381.077 125.675 381.097 127.295C381.097 128.895 380.737 130.325 380.017 131.585C379.297 132.845 378.307 133.835 377.047 134.555C375.807 135.275 374.387 135.635 372.787 135.635ZM372.787 133.325C373.907 133.325 374.907 133.065 375.787 132.545C376.667 132.025 377.347 131.315 377.827 130.415C378.327 129.495 378.577 128.455 378.577 127.295C378.577 126.135 378.327 125.095 377.827 124.175C377.347 123.255 376.667 122.535 375.787 122.015C374.907 121.495 373.907 121.235 372.787 121.235C371.667 121.235 370.667 121.495 369.787 122.015C368.907 122.535 368.207 123.255 367.687 124.175C367.187 125.095 366.937 126.135 366.937 127.295C366.937 128.455 367.187 129.495 367.687 130.415C368.207 131.315 368.907 132.025 369.787 132.545C370.667 133.065 371.667 133.325 372.787 133.325ZM389.25 135.485C388.43 135.485 387.69 135.265 387.03 134.825C386.39 134.365 385.89 133.735 385.53 132.935C385.17 132.135 384.99 131.215 384.99 130.175V113.315C384.99 112.935 385.1 112.635 385.32 112.415C385.56 112.175 385.87 112.055 386.25 112.055C386.63 112.055 386.93 112.175 387.15 112.415C387.39 112.635 387.51 112.935 387.51 113.315V130.175C387.51 130.995 387.67 131.665 387.99 132.185C388.33 132.705 388.75 132.965 389.25 132.965H390C390.34 132.965 390.61 133.085 390.81 133.325C391.01 133.545 391.11 133.845 391.11 134.225C391.11 134.605 390.96 134.915 390.66 135.155C390.38 135.375 390 135.485 389.52 135.485H389.25ZM400.795 135.635C399.175 135.635 397.735 135.275 396.475 134.555C395.235 133.835 394.255 132.845 393.535 131.585C392.815 130.325 392.455 128.895 392.455 127.295C392.455 125.675 392.815 124.235 393.535 122.975C394.255 121.715 395.235 120.725 396.475 120.005C397.735 119.285 399.175 118.925 400.795 118.925C402.395 118.925 403.815 119.285 405.055 120.005C406.295 120.725 407.275 121.715 407.995 122.975C408.715 124.235 409.085 125.675 409.105 127.295C409.105 128.895 408.745 130.325 408.025 131.585C407.305 132.845 406.315 133.835 405.055 134.555C403.815 135.275 402.395 135.635 400.795 135.635ZM400.795 133.325C401.915 133.325 402.915 133.065 403.795 132.545C404.675 132.025 405.355 131.315 405.835 130.415C406.335 129.495 406.585 128.455 406.585 127.295C406.585 126.135 406.335 125.095 405.835 124.175C405.355 123.255 404.675 122.535 403.795 122.015C402.915 121.495 401.915 121.235 400.795 121.235C399.675 121.235 398.675 121.495 397.795 122.015C396.915 122.535 396.215 123.255 395.695 124.175C395.195 125.095 394.945 126.135 394.945 127.295C394.945 128.455 395.195 129.495 395.695 130.415C396.215 131.315 396.915 132.025 397.795 132.545C398.675 133.065 399.675 133.325 400.795 133.325ZM414.738 125.315C414.778 124.095 415.088 123.005 415.668 122.045C416.268 121.065 417.048 120.295 418.008 119.735C418.968 119.175 420.038 118.895 421.218 118.895C422.238 118.895 423.008 119.045 423.528 119.345C424.068 119.645 424.268 120.055 424.128 120.575C424.068 120.875 423.938 121.085 423.738 121.205C423.558 121.305 423.338 121.355 423.078 121.355C422.838 121.355 422.558 121.345 422.238 121.325C421.078 121.165 420.038 121.235 419.118 121.535C418.198 121.815 417.468 122.285 416.928 122.945C416.388 123.605 416.118 124.395 416.118 125.315H414.738ZM414.858 135.485C414.458 135.485 414.148 135.375 413.928 135.155C413.708 134.935 413.598 134.625 413.598 134.225V120.335C413.598 119.935 413.708 119.625 413.928 119.405C414.148 119.185 414.458 119.075 414.858 119.075C415.258 119.075 415.568 119.185 415.788 119.405C416.008 119.625 416.118 119.935 416.118 120.335V134.225C416.118 134.625 416.008 134.935 415.788 135.155C415.568 135.375 415.258 135.485 414.858 135.485ZM442.211 135.635C440.951 135.635 439.731 135.435 438.551 135.035C437.391 134.615 436.461 134.025 435.761 133.265C435.521 133.005 435.421 132.705 435.461 132.365C435.501 132.025 435.661 131.735 435.941 131.495C436.261 131.255 436.581 131.165 436.901 131.225C437.241 131.265 437.531 131.405 437.771 131.645C438.191 132.145 438.791 132.555 439.571 132.875C440.351 133.175 441.211 133.325 442.151 133.325C443.531 133.325 444.541 133.095 445.181 132.635C445.821 132.155 446.151 131.575 446.171 130.895C446.191 130.215 445.871 129.645 445.211 129.185C444.571 128.725 443.471 128.365 441.911 128.105C439.891 127.765 438.411 127.195 437.471 126.395C436.551 125.595 436.091 124.635 436.091 123.515C436.091 122.495 436.371 121.645 436.931 120.965C437.491 120.285 438.221 119.775 439.121 119.435C440.041 119.095 441.031 118.925 442.091 118.925C443.431 118.925 444.591 119.155 445.571 119.615C446.551 120.055 447.341 120.655 447.941 121.415C448.181 121.695 448.281 121.995 448.241 122.315C448.201 122.615 448.041 122.865 447.761 123.065C447.481 123.225 447.161 123.275 446.801 123.215C446.461 123.155 446.171 122.995 445.931 122.735C445.431 122.195 444.861 121.805 444.221 121.565C443.581 121.325 442.851 121.205 442.031 121.205C441.011 121.205 440.171 121.405 439.511 121.805C438.871 122.205 438.551 122.725 438.551 123.365C438.551 123.805 438.661 124.185 438.881 124.505C439.121 124.825 439.541 125.115 440.141 125.375C440.741 125.615 441.581 125.835 442.661 126.035C444.161 126.295 445.341 126.655 446.201 127.115C447.081 127.575 447.711 128.125 448.091 128.765C448.471 129.385 448.661 130.075 448.661 130.835C448.661 131.755 448.391 132.575 447.851 133.295C447.331 134.015 446.581 134.585 445.601 135.005C444.641 135.425 443.511 135.635 442.211 135.635ZM454.302 135.485C453.922 135.485 453.612 135.365 453.372 135.125C453.132 134.885 453.012 134.575 453.012 134.195V120.365C453.012 119.965 453.132 119.655 453.372 119.435C453.612 119.195 453.922 119.075 454.302 119.075C454.682 119.075 454.982 119.195 455.202 119.435C455.442 119.655 455.562 119.965 455.562 120.365V134.195C455.562 134.575 455.442 134.885 455.202 135.125C454.982 135.365 454.682 135.485 454.302 135.485ZM454.272 116.105C453.792 116.105 453.382 115.935 453.042 115.595C452.702 115.255 452.532 114.835 452.532 114.335C452.532 113.835 452.702 113.425 453.042 113.105C453.402 112.765 453.822 112.595 454.302 112.595C454.762 112.595 455.162 112.765 455.502 113.105C455.862 113.425 456.042 113.835 456.042 114.335C456.042 114.835 455.862 115.255 455.502 115.595C455.162 115.935 454.752 116.105 454.272 116.105ZM467.651 135.485C466.611 135.485 465.681 135.235 464.861 134.735C464.041 134.235 463.391 133.545 462.911 132.665C462.451 131.785 462.221 130.795 462.221 129.695V115.145C462.221 114.765 462.331 114.455 462.551 114.215C462.791 113.975 463.101 113.855 463.481 113.855C463.841 113.855 464.141 113.975 464.381 114.215C464.621 114.455 464.741 114.765 464.741 115.145V129.695C464.741 130.635 465.011 131.415 465.551 132.035C466.111 132.635 466.811 132.935 467.651 132.935H468.521C468.861 132.935 469.141 133.055 469.361 133.295C469.581 133.535 469.691 133.845 469.691 134.225C469.691 134.605 469.551 134.915 469.271 135.155C469.011 135.375 468.671 135.485 468.251 135.485H467.651ZM460.451 121.865C460.111 121.865 459.831 121.765 459.611 121.565C459.391 121.365 459.281 121.105 459.281 120.785C459.281 120.465 459.391 120.205 459.611 120.005C459.831 119.785 460.111 119.675 460.451 119.675H467.861C468.201 119.675 468.481 119.785 468.701 120.005C468.921 120.205 469.031 120.465 469.031 120.785C469.031 121.105 468.921 121.365 468.701 121.565C468.481 121.765 468.201 121.865 467.861 121.865H460.451ZM489.351 135.635C487.831 135.635 486.471 135.275 485.271 134.555C484.071 133.815 483.121 132.815 482.421 131.555C481.721 130.295 481.371 128.875 481.371 127.295C481.371 125.695 481.731 124.265 482.451 123.005C483.191 121.745 484.191 120.755 485.451 120.035C486.711 119.295 488.131 118.925 489.711 118.925C491.271 118.925 492.671 119.295 493.911 120.035C495.171 120.755 496.161 121.745 496.881 123.005C497.621 124.265 498.001 125.695 498.021 127.295L497.001 127.775C497.001 129.255 496.661 130.595 495.981 131.795C495.321 132.975 494.411 133.915 493.251 134.615C492.111 135.295 490.811 135.635 489.351 135.635ZM489.711 133.325C490.811 133.325 491.801 133.065 492.681 132.545C493.561 132.025 494.251 131.305 494.751 130.385C495.251 129.465 495.501 128.435 495.501 127.295C495.501 126.135 495.251 125.105 494.751 124.205C494.251 123.285 493.561 122.565 492.681 122.045C491.801 121.505 490.811 121.235 489.711 121.235C488.611 121.235 487.621 121.505 486.741 122.045C485.861 122.565 485.161 123.285 484.641 124.205C484.121 125.105 483.861 126.135 483.861 127.295C483.861 128.435 484.121 129.465 484.641 130.385C485.161 131.305 485.861 132.025 486.741 132.545C487.621 133.065 488.611 133.325 489.711 133.325ZM496.731 135.485C496.351 135.485 496.041 135.375 495.801 135.155C495.561 134.915 495.441 134.605 495.441 134.225V129.275L496.011 126.635L498.021 127.295V134.225C498.021 134.605 497.891 134.915 497.631 135.155C497.391 135.375 497.091 135.485 496.731 135.485ZM524.474 135.485C524.094 135.485 523.784 135.375 523.544 135.155C523.304 134.915 523.184 134.605 523.184 134.225V125.615C523.184 124.235 522.834 123.175 522.134 122.435C521.434 121.675 520.534 121.295 519.434 121.295C518.254 121.295 517.284 121.695 516.524 122.495C515.784 123.275 515.424 124.315 515.444 125.615H513.224C513.244 124.275 513.534 123.105 514.094 122.105C514.654 121.085 515.424 120.295 516.404 119.735C517.404 119.175 518.534 118.895 519.794 118.895C520.954 118.895 521.984 119.165 522.884 119.705C523.784 120.245 524.484 121.025 524.984 122.045C525.484 123.045 525.734 124.235 525.734 125.615V134.225C525.734 134.605 525.614 134.915 525.374 135.155C525.154 135.375 524.854 135.485 524.474 135.485ZM503.804 135.485C503.424 135.485 503.114 135.375 502.874 135.155C502.634 134.915 502.514 134.605 502.514 134.225V120.365C502.514 119.985 502.634 119.675 502.874 119.435C503.114 119.195 503.424 119.075 503.804 119.075C504.184 119.075 504.484 119.195 504.704 119.435C504.944 119.675 505.064 119.985 505.064 120.365V134.225C505.064 134.605 504.944 134.915 504.704 135.155C504.484 135.375 504.184 135.485 503.804 135.485ZM514.154 135.485C513.794 135.485 513.484 135.375 513.224 135.155C512.984 134.915 512.864 134.605 512.864 134.225V125.615C512.864 124.235 512.514 123.175 511.814 122.435C511.114 121.675 510.214 121.295 509.114 121.295C507.934 121.295 506.964 121.685 506.204 122.465C505.444 123.245 505.064 124.255 505.064 125.495H503.354C503.374 124.195 503.644 123.055 504.164 122.075C504.704 121.075 505.434 120.295 506.354 119.735C507.274 119.175 508.314 118.895 509.474 118.895C510.634 118.895 511.664 119.165 512.564 119.705C513.464 120.245 514.164 121.025 514.664 122.045C515.184 123.045 515.444 124.235 515.444 125.615V134.225C515.444 134.605 515.324 134.915 515.084 135.155C514.844 135.375 514.534 135.485 514.154 135.485ZM538.374 135.635C536.734 135.635 535.284 135.285 534.024 134.585C532.764 133.865 531.774 132.875 531.054 131.615C530.334 130.355 529.974 128.915 529.974 127.295C529.974 125.655 530.314 124.215 530.994 122.975C531.674 121.715 532.604 120.725 533.784 120.005C534.984 119.285 536.364 118.925 537.924 118.925C539.464 118.925 540.794 119.275 541.914 119.975C543.034 120.655 543.894 121.605 544.494 122.825C545.114 124.045 545.424 125.435 545.424 126.995C545.424 127.335 545.314 127.615 545.094 127.835C544.874 128.035 544.594 128.135 544.254 128.135H531.714V126.065H544.374L543.114 126.965C543.114 125.865 542.904 124.875 542.484 123.995C542.064 123.115 541.464 122.425 540.684 121.925C539.924 121.425 539.004 121.175 537.924 121.175C536.784 121.175 535.794 121.445 534.954 121.985C534.114 122.505 533.464 123.225 533.004 124.145C532.544 125.065 532.314 126.115 532.314 127.295C532.314 128.475 532.574 129.525 533.094 130.445C533.614 131.345 534.324 132.065 535.224 132.605C536.144 133.125 537.194 133.385 538.374 133.385C539.054 133.385 539.744 133.265 540.444 133.025C541.164 132.785 541.734 132.485 542.154 132.125C542.394 131.925 542.664 131.825 542.964 131.825C543.284 131.805 543.554 131.885 543.774 132.065C544.054 132.325 544.194 132.615 544.194 132.935C544.214 133.235 544.094 133.495 543.834 133.715C543.154 134.275 542.304 134.735 541.284 135.095C540.284 135.455 539.314 135.635 538.374 135.635ZM555.6 135.485C554.56 135.485 553.63 135.235 552.81 134.735C551.99 134.235 551.34 133.545 550.86 132.665C550.4 131.785 550.17 130.795 550.17 129.695V115.145C550.17 114.765 550.28 114.455 550.5 114.215C550.74 113.975 551.05 113.855 551.43 113.855C551.79 113.855 552.09 113.975 552.33 114.215C552.57 114.455 552.69 114.765 552.69 115.145V129.695C552.69 130.635 552.96 131.415 553.5 132.035C554.06 132.635 554.76 132.935 555.6 132.935H556.47C556.81 132.935 557.09 133.055 557.31 133.295C557.53 133.535 557.64 133.845 557.64 134.225C557.64 134.605 557.5 134.915 557.22 135.155C556.96 135.375 556.62 135.485 556.2 135.485H555.6ZM548.4 121.865C548.06 121.865 547.78 121.765 547.56 121.565C547.34 121.365 547.23 121.105 547.23 120.785C547.23 120.465 547.34 120.205 547.56 120.005C547.78 119.785 548.06 119.675 548.4 119.675H555.81C556.15 119.675 556.43 119.785 556.65 120.005C556.87 120.205 556.98 120.465 556.98 120.785C556.98 121.105 556.87 121.365 556.65 121.565C556.43 121.765 556.15 121.865 555.81 121.865H548.4ZM562.061 135.965C561.541 135.965 561.101 135.785 560.741 135.425C560.381 135.065 560.201 134.625 560.201 134.105C560.201 133.585 560.381 133.145 560.741 132.785C561.121 132.425 561.561 132.245 562.061 132.245C562.561 132.245 562.991 132.435 563.351 132.815C563.711 133.175 563.891 133.605 563.891 134.105C563.891 134.605 563.711 135.045 563.351 135.425C563.011 135.785 562.581 135.965 562.061 135.965Z" fill="#79788F"/>
</svg>
